<?xml version="1.0" standalone="no"?>
<!DOCTYPE svg PUBLIC "-//W3C//DTD SVG 1.1//EN" "http://www.w3.org/Graphics/SVG/1.1/DTD/svg11.dtd" >
<!--
2013-9-30: Created.
-->
<svg>
<metadata>
Created by iconfont
</metadata>
<defs>

<font id="iconfont" horiz-adv-x="1024" >
  <font-face
    font-family="iconfont"
    font-weight="500"
    font-stretch="normal"
    units-per-em="1024"
    ascent="896"
    descent="-128"
  />
    <missing-glyph />
    
    <glyph glyph-name="space_fileopen" unicode="&#59079;" d="M93.988571 657.188571h602.624c22.820571 0 41.252571-18.724571 41.252572-41.910857v-285.110857a41.618286 41.618286 0 0 0-41.252572-41.910857h-602.697142a41.618286 41.618286 0 0 0-41.179429 41.910857V615.277714c0 23.186286 18.432 41.910857 41.252571 41.910857zM328.923429 762.587429c51.2 0 92.745143-41.910857 92.745142-93.549715v-59.538285h328.850286c51.2 0 92.745143-41.837714 92.745143-93.549715v-382.683428c0-51.638857-41.472-93.476571-92.745143-93.476572H92.745143c-24.576 0-48.201143 9.801143-65.609143 27.355429A93.915429 93.915429 0 0 0 0 133.266286V515.949714c0 2.925714 0.146286 5.705143 0.365714 8.557715A94.646857 94.646857 0 0 0 0 532.918857V668.964571C0 720.676571 41.545143 762.587429 92.745143 762.587429h236.178286zM259.803429 581.924571h611.986285a109.714286 109.714286 0 0 0 104.082286-144.457142l-107.52-322.706286a109.714286 109.714286 0 0 0-104.155429-74.971429h-662.674285a73.142857 73.142857 0 0 0-69.485715 96.256l123.611429 370.834286a109.714286 109.714286 0 0 0 104.155429 74.971429z"  horiz-adv-x="1024" />

    
    <glyph glyph-name="space_table2" unicode="&#59074;" d="M930.230857 489.618286H716.946286V642.194286h213.211428v-152.649143h0.073143z m0-229.961143H716.946286V410.843429h213.211428V259.657143h0.073143z m0-190.829714a38.985143 38.985143 0 0 0-38.838857-39.058286H716.946286V181.101714h213.211428v-112.274285h0.073143zM638.902857 489.618286H395.776V642.194286h243.053714v-152.649143h0.073143z m0-229.961143H395.776V410.843429h243.053714V259.657143h0.073143z m0-229.888H395.776V181.101714h243.053714v-151.332571h0.073143zM93.622857 489.618286h224.036572V642.194286H93.622857v-152.649143z m0-229.961143h224.036572V410.843429H93.622857V259.657143z m224.036572-229.888h-185.051429a38.985143 38.985143 0 0 0-38.838857 39.058286V181.101714h223.963428v-151.332571h-0.073142zM891.392 822.857143H132.608C59.465143 822.857143 0 762.88 0 689.371429v-620.544c0-73.508571 59.465143-133.412571 132.608-133.412572h758.784c73.142857 0 132.608 59.904 132.608 133.412572V689.371429A133.193143 133.193143 0 0 1 891.392 822.857143z"  horiz-adv-x="1024" />

    
    <glyph glyph-name="space_local" unicode="&#59070;" d="M921.6 844.8a102.4 102.4 0 0 0 102.4-102.4v-614.4a102.4 102.4 0 0 0-102.4-102.4h-406.016l-151.2448-102.4H102.4a102.4 102.4 0 0 0-102.4 102.4V742.4a102.4 102.4 0 0 0 102.4 102.4h819.2z m-361.728-179.2h-102.4l-0.0512-275.3536-67.84 67.84-72.3968-72.3968 191.488-191.488 191.488 191.488-72.448 72.3968-67.8912-67.9424V665.6z"  horiz-adv-x="1024" />

    
    <glyph glyph-name="space_table" unicode="&#59071;" d="M883.2 844.8a102.4 102.4 0 0 0 102.4-102.4v-716.8a102.4 102.4 0 0 0-102.4-102.4H140.8a102.4 102.4 0 0 0-102.4 102.4V742.4a102.4 102.4 0 0 0 102.4 102.4h742.4z m-563.2-716.8h-230.4v-102.4a51.2 51.2 0 0 1 51.2-51.2h179.2v153.6z m307.2 0h-230.4v-153.6h230.4v153.6z m307.2 0h-230.4v-153.6h179.2a51.2 51.2 0 0 1 51.2 51.2v102.4z m-614.4 230.4h-230.4v-153.6h230.4v153.6z m307.2 0h-230.4v-153.6h230.4v153.6z m307.2 0h-230.4v-153.6h230.4v153.6zM320 588.8h-230.4v-153.6h230.4V588.8z m307.2 0h-230.4v-153.6h230.4V588.8z m307.2 0h-230.4v-153.6h230.4V588.8z"  horiz-adv-x="1024" />

    
    <glyph glyph-name="space_query" unicode="&#59072;" d="M768 856.615385A59.076923 59.076923 0 0 0 827.076923 797.538462v-433.23077a59.076923 59.076923 0 0 0-59.076923-59.076923h-433.230769A59.076923 59.076923 0 0 0 275.692308 364.307692v433.23077A59.076923 59.076923 0 0 0 334.769231 856.615385h433.230769z m-320-413.538462h-137.846154v-64a39.384615 39.384615 0 0 1 39.384616-39.384615h98.461538V443.076923z m172.307692 0h-137.846154v-103.384615h137.846154V443.076923z m172.307693 0h-137.846154v-103.384615h98.461538a39.384615 39.384615 0 0 1 39.384616 39.384615V443.076923zM448 580.923077h-137.846154v-103.384615h137.846154V580.923077z m172.307692 0h-137.846154v-103.384615h137.846154V580.923077z m172.307693 0h-137.846154v-103.384615h137.846154V580.923077z m-344.615385 137.846154h-137.846154v-103.384616h137.846154V718.769231z m172.307692 0h-137.846154v-103.384616h137.846154V718.769231z m172.307693 0h-137.846154v-103.384616h137.846154V718.769231zM39.384615 541.538462m78.769231 0l393.846154 0q78.769231 0 78.769231-78.769231l0-393.846154q0-78.769231-78.769231-78.769231l-393.846154 0q-78.769231 0-78.769231 78.769231l0 393.846154q0 78.769231 78.769231 78.769231ZM531.692308 541.538462a59.076923 59.076923 0 0 0 59.076923-59.076924v-433.230769a59.076923 59.076923 0 0 0-59.076923-59.076923h-433.23077A59.076923 59.076923 0 0 0 39.384615 49.230769v433.230769A59.076923 59.076923 0 0 0 98.461538 541.538462h433.23077zM211.692308 128h-137.846154v-64a39.384615 39.384615 0 0 1 39.384615-39.384615h98.461539V128z m172.307692 0h-137.846154v-103.384615h137.846154V128z m172.307692 0h-137.846154v-103.384615h98.461539a39.384615 39.384615 0 0 1 39.384615 39.384615V128zM211.692308 265.846154h-137.846154v-103.384616h137.846154V265.846154z m172.307692 0h-137.846154v-103.384616h137.846154V265.846154z m172.307692 0h-137.846154v-103.384616h137.846154V265.846154z m-344.615384 137.846154h-137.846154v-103.384616h137.846154V403.692308z m172.307692 0h-137.846154v-103.384616h137.846154V403.692308z m172.307692 0h-137.846154v-103.384616h137.846154V403.692308zM866.461538 305.230769a157.538462 157.538462 0 1 0 0-315.076923 157.538462 157.538462 0 0 0 0 315.076923z m19.692308-63.015384h-39.384615v-74.83077h-74.830769v-39.384615h74.830769v-74.830769h39.384615v74.830769h74.830769v39.384615h-74.830769v74.83077z"  horiz-adv-x="1024" />

    
    <glyph glyph-name="space_save" unicode="&#59073;" d="M725.6576 844.8l284.8768-230.4v-576c0-63.6416-63.7952-115.2-142.4384-115.2H155.904C77.312-76.8 13.4656-25.2416 13.4656 38.4V729.6C13.4656 793.2416 77.312 844.8 155.904 844.8h569.7536zM153.6 742.4h512v-256H153.6z"  horiz-adv-x="1024" />

    
    <glyph glyph-name="space_indicators" unicode="&#59075;" d="M0 844.8m153.6 0l716.8 0q153.6 0 153.6-153.6l0-614.4q0-153.6-153.6-153.6l-716.8 0q-153.6 0-153.6 153.6l0 614.4q0 153.6 153.6 153.6ZM853.504 579.6864v-296.5504h-102.4V422.912l-223.5904-223.5904-136.1408 136.0896-192-192-72.3968 72.448L391.3728 480.256l136.0896-136.0896 133.12 133.12h-103.5776v102.4h296.4992z"  horiz-adv-x="1024" />

    
    <glyph glyph-name="beautify" unicode="&#59076;" d="M921.987495 411.996563c1.279916 2.623828 3.327782 4.031735 5.951609 4.031735s4.671693-1.407908 5.951609-4.031735l15.99895-31.9979 36.093632-3.96774a13.439118 13.439118 0 0 0 5.951609-6.015605c1.343912-2.623828 0.639958-5.375647-1.919874-7.999475l-26.04629-23.998425 5.951609-35.96564c1.343912-2.687824 0.639958-5.119664-1.919874-7.039538-2.751819-1.919874-5.439643-2.303849-8.063471-1.023933l-31.9979 17.98282-31.9979-17.918824c-2.623828-1.279916-5.375647-0.959937-7.999475 0.959937-2.687824 1.919874-3.327782 4.287719-1.98387 7.039538l5.951609 35.96564-25.982294 23.998425c-2.559832 2.623828-3.327782 5.375647-1.98387 7.999475a13.119139 13.119139 0 0 0 5.951609 6.015605l36.029636 3.96774 15.99895 31.9979z m-831.945404 445.986732C91.322007 861.951034 93.369873 863.934904 95.9937 863.934904s4.671693-1.919874 5.95161-5.951609l15.99895-30.078026 36.093631-5.95161c2.559832 0 4.607698-1.727887 5.95161-5.055668 1.343912-3.327782 0.639958-5.63163-1.919874-7.039538l-26.046291-25.854303 5.951609-34.045766c1.343912-4.031735 0.639958-6.655563-1.919874-8.063471a8.575437 8.575437 0 0 0-8.06347 0l-31.997901 16.062946-31.9979-15.99895a8.511441 8.511441 0 0 0-7.999475 0c-2.687824 1.279916-3.327782 3.96774-1.98387 7.999475l5.95161 33.917774-25.982295 26.046291C31.357942 811.266361 30.653988 813.570209 31.9979 816.961987c1.343912 3.391777 3.391777 4.991672 5.95161 4.991672l36.029635 5.95161 15.99895 30.078026z m383.974802 0C475.296809 861.951034 477.344674 863.934904 479.968502 863.934904s4.671693-1.919874 5.951609-5.951609l15.998951-30.078026 36.093631-5.95161c2.559832 0 4.607698-1.727887 5.951609-5.055668 1.343912-3.327782 0.639958-5.63163-1.919874-7.039538l-26.04629-25.854303 5.951609-34.045766c1.343912-4.031735 0.639958-6.655563-1.919874-8.063471a8.575437 8.575437 0 0 0-8.063471 0l-31.9979 16.062946-31.9979-15.99895a8.575437 8.575437 0 0 0-7.999475 0c-2.687824 1.279916-3.327782 3.96774-1.98387 7.999475l5.95161 33.917774-25.982295 26.046291c-2.559832 1.343912-3.327782 3.647761-1.98387 7.039538 1.343912 3.391777 3.391777 4.991672 5.951609 4.991672l36.029636 5.95161 15.99895 30.078026z m-196.019137-40.125367c1.279916 4.095731 4.607698 6.079601 9.983345 6.079601 5.311651 0 8.703429-1.98387 9.983345-6.015605l23.998425-47.99685 52.028586-7.93548c5.311651 0 8.639433-2.43184 9.983345-7.039538 1.343912-4.671693 0-8.959412-4.031736-13.055143l-37.949509-35.96564 9.983345-51.964589c0-5.311651-1.727887-9.407383-5.055669-11.967215-3.327782-2.687824-7.679496-2.687824-12.927151 0l-46.076977 23.934429-46.01298-23.934429c-5.311651-2.687824-9.59937-2.687824-12.863156 0-3.455773 2.559832-5.119664 6.655563-5.119664 11.967215l10.047341 52.028585-37.94951 35.901644C191.987401 745.926649 190.643489 750.278363 191.987401 754.950056c1.343912 4.607698 4.671693 7.039538 9.983345 7.039538l52.028585 7.93548 23.93443 47.99685v-0.063996z m523.933617-23.870433l-156.021761-156.021762 120.056121-119.992125 156.021762 155.957765-120.056122 120.056122z m-223.985301-223.985301L101.94531 94.065427l120.056121-119.992126 476.000763 475.872771L577.882076 570.002194zM23.998425 38.069102a77.882889 77.882889 0 0 0-23.998425 56.956262c0 22.014555 7.999475 40.957312 23.998425 56.956262L744.07917 872.062371c14.847026 15.486984 35.453673 24.126417 56.892266 23.934429 22.014555 0 40.957312-7.999475 56.956262-23.998425l142.070677-141.942685c15.934954-15.99895 23.934429-35.005703 23.934429-56.956262 0-22.078551-7.999475-40.957312-23.998425-57.020258L279.853635-104.001575a77.946885 77.946885 0 0 0-56.956263-23.998425 77.946885 77.946885 0 0 0-57.020258 23.998425L23.870434 37.94111l0.127991 0.127992z"  horiz-adv-x="1024" />

    
    <glyph glyph-name="space_fileclose" unicode="&#59077;" d="M140.629675 708.266667h683.008a47.104 47.104 0 0 0 46.762666-47.5136V337.578667a47.104 47.104 0 0 0-46.762666-47.5136H140.629675a47.104 47.104 0 0 0-46.762667 47.5136V660.753067a47.104 47.104 0 0 0 46.762667 47.5136zM404.753408 826.231467c57.685333 0 104.448-48.3328 104.448-107.997867v-68.744533h370.688c57.685333 0 104.448-48.401067 104.448-108.066134v-441.9584c0-59.665067-46.762667-107.997867-104.448-107.997866H138.581675c-27.716267 0-54.272 11.400533-73.864534 31.607466A109.909333 109.909333 0 0 0 34.133675 99.5328V541.354667c0 3.2768 0.136533 6.5536 0.4096 9.8304A111.957333 111.957333 0 0 0 34.133675 561.083733V718.2336c0 59.665067 46.830933 107.997867 104.516266 107.997867H404.821675z"  horiz-adv-x="1024" />

    
    <glyph glyph-name="space_model" unicode="&#59078;" d="M435.5584 359.424c17.0496-10.496 28.2112-27.5968 28.2112-47.9232V-102.4c0-14.4384-12.4416-25.6-28.16-25.6a30.5152 30.5152 0 0 0-15.104 3.9424L31.488 82.5856l-0.6656 0.6656c-18.3808 9.8304-30.8224 28.16-30.8224 49.152V541.184c0 14.3872 12.4416 25.6 28.2112 25.6a30.72 30.72 0 0 0 11.1616-2.048l5.2224-2.56 381.7984-198.144 9.216-4.608zM953.856 703.1296s16.384-6.5536 16.384-20.992c0-16.384-16.384-25.6-16.384-25.6l-407.3984-214.528-5.9392-2.56a70.2464 70.2464 0 0 0-56.4224 0l-6.5536 3.2768-406.6816 214.528s-18.3808 11.1104-18.3808 25.5488c0 13.824 17.7152 20.992 17.7152 20.992L474.9312 885.504S498.5344 896 511.6928 896c13.1072 0 36.7104-10.496 36.7104-10.496l405.4016-182.3744zM995.84 566.6816c15.7184 0 28.16-11.1616 28.16-25.6v-409.2928c0-20.992-12.4416-39.424-30.8224-49.2032h-0.6656l-389.0176-206.6432c-0.6656 0-0.6656-0.6656-1.28-0.6656a30.5664 30.5664 0 0 0-13.824-3.2768c-15.7184 0-28.16 11.776-28.16 25.6v413.9008c0 19.712 11.1104 37.376 28.16 47.9232l8.5504 4.608 382.464 198.0928 5.2224 2.56a30.72 30.72 0 0 0 11.1616 2.048z"  horiz-adv-x="1024" />

    
    <glyph glyph-name="iconversion" unicode="&#59069;" d="M512 896a512 512 0 1 0 0-1024A512 512 0 0 0 512 896z m0-96a416 416 0 1 1 0-832 416 416 0 0 1 0 832z m-40.064-704.64L296.832 576.512h93.44l137.088-375.424 137.024 375.424h93.504L582.784 95.36H471.936z"  horiz-adv-x="1024" />

    
    <glyph glyph-name="play" unicode="&#59068;" d="M830.976 324.498286L261.924571-81.956571A73.142857 73.142857 0 0 0 146.285714-22.454857V790.454857A73.142857 73.142857 0 0 0 261.924571 849.92l569.051429-406.454857a73.142857 73.142857 0 0 0 0-119.003429z"  horiz-adv-x="1024" />

    
    <glyph glyph-name="learn" unicode="&#59067;" d="M1007.808 57.856h-306.112c-11.52 0-22.4-4.992-29.888-13.76a127.552 127.552 0 0 0-96.64-45.248 127.488 127.488 0 0 0-96.512 45.248 39.232 39.232 0 0 1-29.888 13.76H142.656V785.344h275.2c65.088 0 118.016-52.928 118.016-117.952v-334.272a39.296 39.296 0 1 1 78.72 0V667.392c0 65.024 52.864 117.952 117.888 117.952h275.328v-727.488z m0 806.144h-275.328a196.48 196.48 0 0 1-157.248-78.72A196.48 196.48 0 0 1 417.92 864H142.656A78.72 78.72 0 0 1 64 785.28v-727.488c0-43.392 35.2-78.656 78.656-78.656h289.088c38.592-37.76 89.92-59.008 143.488-59.008 53.504 0 104.832 21.312 143.424 59.008h289.152a78.72 78.72 0 0 1 78.592 78.656V785.344A78.72 78.72 0 0 1 1007.808 864z"  horiz-adv-x="1152" />

    
    <glyph glyph-name="help" unicode="&#59066;" d="M512 896a512 512 0 1 0 0-1024A512 512 0 0 0 512 896z m-7.168-784.042667a78.933333 78.933333 0 0 1-56.32-21.504 71.850667 71.850667 0 0 1-22.528-55.296c0-22.528 7.168-40.96 22.528-55.296 15.36-14.336 33.792-22.528 56.32-22.528s40.96 7.168 56.32 21.504a74.922667 74.922667 0 0 1 23.552 56.32 75.605333 75.605333 0 0 1-22.528 55.296 81.408 81.408 0 0 1-57.344 21.504z m18.432 590.848c-75.776 0-135.168-21.504-179.2-64.512-45.056-43.008-66.56-102.4-66.56-178.176H394.24c0 43.008 8.192 76.8 25.6 100.352 19.456 28.672 51.2 41.984 96.256 41.984 34.816 0 62.464-9.216 81.92-28.672 18.432-19.456 28.672-46.08 28.672-79.872 0-25.6-9.216-50.176-27.648-72.704l-12.288-14.336c-66.56-59.392-106.496-102.4-119.808-130.048-14.336-27.648-20.48-61.44-20.48-100.352V162.133333h117.76v14.336c0 24.576 5.12 46.08 15.36 66.56a158.72 158.72 0 0 0 40.96 51.2c49.152 43.008 78.848 70.656 88.064 80.896 24.576 32.768 37.888 74.752 37.888 125.952 0 62.464-20.48 111.616-61.44 147.456-40.96 36.864-95.232 54.272-161.792 54.272z"  horiz-adv-x="1024" />

    
    <glyph glyph-name="more1" unicode="&#59065;" d="M192 480a96 96 0 1 0 0-192 96 96 0 0 0 0 192z m320 0a96 96 0 1 0 0-192 96 96 0 0 0 0 192z m320 0a96 96 0 1 0 0-192 96 96 0 0 0 0 192z"  horiz-adv-x="1024" />

    
    <glyph glyph-name="update" unicode="&#59064;" d="M398.848 502.912l67.904-67.84-25.536-25.6-7.104-7.552c-50.176-56.704-52.288-136.64-6.4-182.464l162.88-162.944 6.4-5.952c48.832-41.472 129.152-34.944 183.68 19.52l45.248 45.248 7.104 7.616c50.176 56.704 52.288 136.64 6.4 182.464l-83.712 83.84 67.84 67.84 83.84-83.84 8.128-8.576c78.336-87.808 68.224-227.2-21.76-317.184l-45.248-45.248-9.152-8.768c-93.12-84.608-232.384-89.088-316.672-4.8l-162.944 162.88-8.128 8.64c-78.336 87.808-68.224 227.2 21.76 317.184l25.472 25.536zM147.072 794.176l9.152 8.704C249.408 887.552 388.672 892.032 472.96 807.744l162.944-162.88 8.128-8.64c78.336-87.808 68.288-227.2-21.76-317.248l-25.472-25.472-67.84 67.84 25.472 25.536 7.168 7.616c50.112 56.704 52.224 136.64 6.4 182.4L405.12 739.84l-6.464 5.952c-48.832 41.472-129.152 35.008-183.68-19.52l-45.184-45.248-7.168-7.552c-50.112-56.768-52.224-136.704-6.4-182.528l83.776-83.776-67.904-67.84-83.84 83.776-8.064 8.576C1.728 519.488 11.84 658.944 101.76 748.928l45.248 45.248z"  horiz-adv-x="1024" />

    
    <glyph glyph-name="audit" unicode="&#59063;" d="M512 896c282.752 0 512-229.248 512-512s-229.248-512-512-512S0 101.248 0 384 229.248 896 512 896z m216.277333-683.136H295.381333c-9.941333 0-18.048-9.514667-18.048-21.12s8.106667-21.077333 18.048-21.077333h432.896c9.898667 0 18.048 9.472 18.048 21.077333s-8.106667 21.12-18.048 21.12zM512 640a106.666667 106.666667 0 0 1-106.666667-106.666667l0.213334-6.997333c2.090667-32 18.304-60.16 42.453333-78.336V384h-85.333333a85.333333 85.333333 0 0 1-85.333334-85.333333v-42.666667h469.333334v42.666667a85.333333 85.333333 0 0 1-85.333334 85.333333h-85.333333l0.042667 64A106.666667 106.666667 0 0 1 512 640z"  horiz-adv-x="1024" />

    
    <glyph glyph-name="submit" unicode="&#59062;" d="M512 896c282.752 0 512-229.248 512-512s-229.248-512-512-512S0 101.248 0 384 229.248 896 512 896z m-41.386667-648.874667a9.130667 9.130667 0 0 1-11.946666-8.618666v-58.709334a9.088 9.088 0 0 1 16.64-5.034666l31.829333 48.213333a9.088 9.088 0 0 1-4.693333 13.610667z m288.810667 387.669334a23.253333 23.253333 0 0 1-24.789333 2.858666L226.389333 390.528a23.168 23.168 0 0 1 3.413334-43.050667l163.968-49.578666a22.869333 22.869333 0 0 1 19.029333 4.437333v0.042667l262.613333 224.042666-210.304-236.032a8.789333 8.789333 0 0 1-2.986666-6.570666c0.042667-4.181333 2.986667-7.808 7.082666-8.704l174.250667-52.693334a23.253333 23.253333 0 0 1 29.269333 16.469334l94.549334 372.266666a23.168 23.168 0 0 1-7.850667 23.637334z"  horiz-adv-x="1024" />

    
    <glyph glyph-name="Packup2" unicode="&#59060;" d="M170.666667 469.333333h682.666666v-170.666666H170.666667z"  horiz-adv-x="1024" />

    
    <glyph glyph-name="unfold2" unicode="&#59061;" d="M597.333333 725.333333v-256h256v-170.666666H597.333333v-256H426.666667l-0.085334 256H170.666667V469.333333h256V725.333333h170.666666z"  horiz-adv-x="1024" />

    
    <glyph glyph-name="note" unicode="&#59059;" d="M471.844571 560.64l190.025143-109.714286-252.928-438.052571-171.227428-77.165714-18.797715 186.88 252.928 438.125714zM713.142857 759.222857a109.714286 109.714286 0 0 0 40.155429-149.869714l-54.857143-95.012572-190.025143 109.714286 54.857143 95.085714a109.714286 109.714286 0 0 0 149.869714 40.082286z"  horiz-adv-x="1024" />

    
    <glyph glyph-name="form_2" unicode="&#59058;" d="M960-128H64V896h595.072L960 635.328V-128zM592 800H160v-832h704V528H592V800zM768 256v-96H256V256h512zM576 448v-96H256V448h320z m250.432 176L688 743.936V624h138.432z"  horiz-adv-x="1024" />

    
    <glyph glyph-name="file_2" unicode="&#59057;" d="M960 832v-832H64V554.688h428.992a32 32 0 0 1 29.312 19.072L636.16 832H960z m-128-128h-112.384L639.424 522.112a160 160 0 0 0-134.592-95.04l-11.84-0.384H192V128h640V704z m-384 32v-128H64v128h384z"  horiz-adv-x="1024" />

    
    <glyph glyph-name="equal" unicode="&#59053;" d="M804.571429 310.857143v-73.142857H219.428571V310.857143h585.142858z m0 219.428571v-73.142857H219.428571V530.285714h585.142858z"  horiz-adv-x="1024" />

    
    <glyph glyph-name="less" unicode="&#59054;" d="M206.555429 349.769143l585.142857-219.428572 25.746285 68.461715L323.584 384l493.860571 185.197714-25.746285 68.461715-585.142857-219.428572z"  horiz-adv-x="1024" />

    
    <glyph glyph-name="greater" unicode="&#59055;" d="M817.444571 349.769143l-585.142857-219.428572-25.746285 68.461715L700.416 384 206.555429 569.197714l25.746285 68.461715 585.142857-219.428572z"  horiz-adv-x="1024" />

    
    <glyph glyph-name="Lessorequal" unicode="&#59056;" d="M804.571429 164.571429v-73.142858H219.428571v73.142858h585.142858z m-12.873143 546.230857l25.746285-68.461715L323.584 457.142857l493.860571-185.197714-25.746285-68.461714-585.142857 219.428571v68.461714l585.142857 219.428572z"  horiz-adv-x="1024" />

    
    <glyph glyph-name="Greaterorequal" unicode="&#59052;" d="M804.571429 164.571429v-73.142858H219.428571v73.142858h585.142858zM232.301714 710.802286l585.142857-219.428572v-68.461714l-585.142857-219.428571-25.746285 68.461714L700.416 457.142857 206.555429 642.340571l25.746285 68.461715z"  horiz-adv-x="1024" />

    
    <glyph glyph-name="train" unicode="&#59051;" d="M512.53824 896c75.968 0 139.52-52.928 155.904-123.84a448.192 448.192 0 0 0 290.304-460.736l-2.304-20.032-0.96 0.256a160 160 0 0 0-151.488-279.808A445.824 445.824 0 0 0 512.53824-96c-108.608 0-211.2 38.848-291.52 107.776a160 160 0 0 0-152.32 279.296 448.192 448.192 0 0 0 288 481.088A159.872 159.872 0 0 0 512.53824 896z m156.544-193.28l-1.792-7.68a160.064 160.064 0 0 0-311.296 7.68 384 384 0 0 1-225.92-385.6 160 160 0 0 0 146.048-267.712A381.888 381.888 0 0 1 512.53824-32a382.336 382.336 0 0 1 236.416 81.408 160 160 0 0 0 145.984 267.712l-1.92-17.152a384.192 384.192 0 0 1-224 402.816zM160.53824 256a96 96 0 1 1 0-192 96 96 0 0 1 0 192z m704 0a96 96 0 1 1 0-192 96 96 0 0 1 0 192zM512.53824 832a96 96 0 1 1 0-192 96 96 0 0 1 0 192z"  horiz-adv-x="1024" />

    
    <glyph glyph-name="start" unicode="&#59050;" d="M512 896a512 512 0 1 0 0-1024A512 512 0 0 0 512 896z m0-64a448 448 0 1 1 0-896A448 448 0 0 1 512 832z m261.056-263.872a32 32 0 0 0 6.4-40.512l-3.328-4.672-302.784-347.072a32 32 0 0 0-42.24-5.312l-4.672 3.904-177.28 179.84a32 32 0 0 0 41.216 48.704l4.48-3.712 152.896-155.328 280.128 321.088a32 32 0 0 0 45.184 3.072z"  horiz-adv-x="1024" />

    
    <glyph glyph-name="remind1" unicode="&#59049;" d="M512 896c282.7776 0 512-229.2224 512-512s-229.2224-512-512-512S0 101.2224 0 384 229.2224 896 512 896z m0-76.8a435.2 435.2 0 1 1 0-870.4 435.2 435.2 0 0 1 0 870.4z m-7.5776-618.7008c18.0224 0 33.5872-5.7344 45.8752-17.2032 11.4688-11.4688 18.0224-26.2144 18.0224-44.2368s-6.5536-33.5872-18.0224-45.056a66.56 66.56 0 0 0-45.8752-17.2032c-18.0224 0-32.768 6.5536-44.2368 18.0224-13.1072 11.4688-18.8416 26.2144-18.8416 44.2368s5.7344 32.768 18.8416 44.2368c11.4688 11.4688 26.2144 17.2032 44.2368 17.2032z m14.7456 472.6784c53.248 0 96.6656-13.9264 129.4336-43.4176 32.768-28.672 49.152-67.9936 49.152-117.9648 0-40.96-10.6496-74.5472-30.3104-100.7616-7.3728-8.192-31.1296-30.3104-70.4512-64.7168a116.3264 116.3264 0 0 1-32.768-40.1408c-8.192-16.384-12.288-34.4064-12.288-54.0672v-11.4688H457.728v11.4688c0 31.1296 4.9152 58.1632 16.384 80.2816 10.6496 22.1184 42.5984 56.5248 95.8464 104.0384l9.8304 11.4688c14.7456 18.0224 22.1184 37.6832 22.1184 58.1632 0 27.0336-8.192 48.3328-22.9376 63.8976-15.5648 15.5648-37.6832 22.9376-65.536 22.9376-35.2256 0-60.6208-10.6496-77.0048-32.768-13.9264-18.8416-20.48-45.8752-20.48-81.1008H322.56c0 60.6208 17.2032 108.1344 53.248 142.5408 35.2256 34.4064 82.7392 51.6096 143.36 51.6096z"  horiz-adv-x="1024" />

    
    <glyph glyph-name="zhibiaoyuan" unicode="&#59047;" d="M0 896m128 0l768 0q128 0 128-128l0-768q0-128-128-128l-768 0q-128 0-128 128l0 768q0 128 128 128ZM732.16 563.2v58.88H286.08v-58.88h446.08z m-483.2-503.04c71.68 25.6 122.88 60.8 154.88 106.24 32 49.28 49.92 115.2 52.48 197.12v11.52h101.12v-235.52c0-44.8 21.76-67.2 65.28-67.2h99.2c23.04 0 39.68 7.04 51.2 19.84 11.52 14.08 19.84 56.32 24.32 128l-55.04 17.92c-1.28-53.76-5.12-85.76-10.88-96.64-4.48-9.6-11.52-14.72-21.12-14.72H640c-16 0-23.68 8.96-23.68 25.6V375.04h171.52v58.88H236.8v-58.88h160.64v-11.52c-2.56-64.64-16-117.12-40.32-158.08-24.96-37.76-71.68-69.12-140.8-94.08l32.64-51.2z"  horiz-adv-x="1024" />

    
    <glyph glyph-name="stop" unicode="&#59045;" d="M512 896a512 512 0 1 0 0-1024A512 512 0 0 0 512 896z m0-96a416 416 0 1 1 0-832 416 416 0 0 1 0 832z m179.2-236.8v-358.4H332.8V563.2h358.4z"  horiz-adv-x="1024" />

    
    <glyph glyph-name="run" unicode="&#59046;" d="M512 896a512 512 0 1 0 0-1024A512 512 0 0 0 512 896z m0-96a416 416 0 1 1 0-832 416 416 0 0 1 0 832zM448 588.544a64 64 0 0 0 33.92-9.728l224.832-140.544a64 64 0 0 0 0-108.544L481.92 189.184A64 64 0 0 0 384 243.456V524.544a64 64 0 0 0 64 64z"  horiz-adv-x="1024" />

    
    <glyph glyph-name="tag_delete2" unicode="&#59048;" d="M955.733333 827.733333v-955.733333L0 827.733333h955.733333z m-94.139733-114.141866L716.8 568.866133l-144.725333 144.725334-48.264534-48.264534 144.725334-144.725333-144.725334-144.861867 48.264534-48.264533 144.725333 144.861867 144.861867-144.861867 48.264533 48.264533L764.996267 520.533333l144.861866 144.725334-48.264533 48.264533z"  horiz-adv-x="1092" />

    
    <glyph glyph-name="up1" unicode="&#59043;" d="M877.714286 896a146.285714 146.285714 0 0 0 146.285714-146.285714v-731.428572a146.285714 146.285714 0 0 0-146.285714-146.285714H146.285714a146.285714 146.285714 0 0 0-146.285714 146.285714V749.714286a146.285714 146.285714 0 0 0 146.285714 146.285714h731.428572z m0-73.142857H146.285714a73.142857 73.142857 0 0 1-72.630857-64.585143L73.142857 749.714286v-731.428572a73.142857 73.142857 0 0 1 64.585143-72.630857L146.285714-54.857143h731.428572a73.142857 73.142857 0 0 1 72.630857 64.585143L950.857143 18.285714V749.714286a73.142857 73.142857 0 0 1-64.585143 72.630857L877.714286 822.857143zM491.227429 547.84a36.571429 36.571429 0 0 0 46.665142-4.242286l206.848-206.848 4.242286-5.12a36.571429 36.571429 0 0 0-4.242286-46.665143l-5.12-4.169142a36.571429 36.571429 0 0 0-46.592 4.169142L512 465.993143 330.971429 284.964571l-5.12-4.169142a36.571429 36.571429 0 0 0-46.592 55.954285l206.848 206.848z"  horiz-adv-x="1024" />

    
    <glyph glyph-name="down1" unicode="&#59044;" d="M877.714286 896a146.285714 146.285714 0 0 0 146.285714-146.285714v-731.428572a146.285714 146.285714 0 0 0-146.285714-146.285714H146.285714a146.285714 146.285714 0 0 0-146.285714 146.285714V749.714286a146.285714 146.285714 0 0 0 146.285714 146.285714h731.428572z m0-73.142857H146.285714a73.142857 73.142857 0 0 1-72.630857-64.585143L73.142857 749.714286v-731.428572a73.142857 73.142857 0 0 1 64.585143-72.630857L146.285714-54.857143h731.428572a73.142857 73.142857 0 0 1 72.630857 64.585143L950.857143 18.285714V749.714286a73.142857 73.142857 0 0 1-64.585143 72.630857L877.714286 822.857143zM325.924571 487.204571l5.12-4.169142L512 302.006857l181.028571 181.028572a36.571429 36.571429 0 0 0 46.665143 4.169142l5.046857-4.169142a36.571429 36.571429 0 0 0 4.242286-46.665143l-4.242286-5.12-206.848-206.848a36.571429 36.571429 0 0 0-46.665142-4.242286l-5.12 4.242286-206.848 206.848a36.571429 36.571429 0 0 0 46.665142 55.954285z"  horiz-adv-x="1024" />

    
    <glyph glyph-name="remind" unicode="&#59041;" d="M512.000512 896c282.7776 0 512-229.2224 512-512 0-265.472-202.0352-483.7376-460.7488-509.44L563.200512-128H82.842112a51.2 51.2 0 0 0-45.7728 74.0864L102.400512 76.8l-0.4096 0.512A509.7472 509.7472 0 0 0 0.000512 384C0.000512 666.7776 229.222912 896 512.000512 896z m0-76.8A435.2 435.2 0 0 1 76.800512 384c0-89.4464 26.9824-174.592 74.7008-244.224l10.24-14.2336 31.6416-38.5024-69.1712-138.24h409.344l22.1184 2.1504c216.8832 21.5552 384.7168 201.5232 391.3216 419.6352L947.200512 384A435.2 435.2 0 0 1 512.000512 819.2zM473.600512 332.8a38.4 38.4 0 1 0 0-76.8h-128a38.4 38.4 0 1 0 0 76.8h128z m204.8 204.8a38.4 38.4 0 1 0 0-76.8h-332.8a38.4 38.4 0 0 0 0 76.8h332.8z"  horiz-adv-x="1024" />

    
    <glyph glyph-name="condition" unicode="&#59042;" d="M512 896c282.7776 0 512-229.2224 512-512s-229.2224-512-512-512S0 101.2224 0 384 229.2224 896 512 896z m0-76.8a435.2 435.2 0 1 1 0-870.4 435.2 435.2 0 0 1 0 870.4z m179.2-192a38.4 38.4 0 0 0 38.0416-33.1776L729.6 588.8v-75.9808a38.4 38.4 0 0 0-76.4416-5.2224l-0.3584 5.2224V550.4H418.9184l149.504-166.3488a38.4 38.4 0 0 0 3.5328-46.7456l-3.584-4.608-149.504-166.2976h233.9328v37.0688a38.4 38.4 0 0 0 33.1776 38.0928l5.2224 0.3072a38.4 38.4 0 0 0 38.0416-33.1776l0.3584-5.2224V128a38.4 38.4 0 0 0-33.1776-38.0416l-5.2224-0.3584h-358.4a38.4 38.4 0 0 0-31.8976 59.8016l3.328 4.2496L488.1408 358.4 304.2304 563.1488a38.4 38.4 0 0 0 23.1936 63.6928L332.8 627.2h358.4z"  horiz-adv-x="1024" />

    
    <glyph glyph-name="set" unicode="&#59040;" d="M747.046595 772.921567a94.820629 94.820629 0 0 0-78.745078-3.202551 95.385785 95.385785 0 0 0-52.49672 52.245539C603.245774 852.482983 580.513941 876.973079 551.753776 888.590176a100.72337 100.72337 0 0 1-37.677071 7.347029h-10.737965c-44.333354-0.816337-88.101551-26.687925-100.47219-69.200221a92.560005 92.560005 0 0 0-48.289446-57.645919c-25.118047-12.307843-52.87349-12.559024-76.861225-3.014166-44.835715 17.708223-95.07181 13.563746-128.604403-21.099159l-6.405103-6.719078a105.370209 105.370209 0 0 1-19.466486-119.938677 95.385785 95.385785 0 0 0-49.042988-131.241798c-42.951861-17.645428-73.84706-55.385295-74.035445-101.728092l0.062795-10.80076c0.753541-41.444778 23.359784-82.324401 61.099651-97.583615 2.637395-1.067517 5.337585-2.009444 8.037775-2.82578a92.120439 92.120439 0 0 0 57.645919-48.352241c12.307843-25.118047 12.559024-52.7479 3.076961-76.924021-17.771019-44.77292-13.626541-95.07181 21.036364-128.478813l6.719078-6.467897c10.172809-9.796039 21.978292-17.331453 34.60011-22.480652 27.190286-10.989146 58.27387-10.612375 85.401362 3.014165a95.385785 95.385785 0 0 0 131.241798-49.042987c12.559024-30.581223 35.290857-55.071319 64.051021-66.688416 11.617097-4.646839 24.301711-7.284234 37.739866-7.347029l10.67517 0.062795c44.333354 0.753541 88.101551 26.62513 100.47219 69.200221 7.095848 24.238916 23.610965 45.463666 48.226651 57.645919 25.118047 12.245048 52.87349 12.559024 76.924021 2.95137 44.835715-17.708223 95.134605-13.563746 128.541608 21.161955l6.467897 6.656283c30.895198 32.025511 39.435335 80.252162 19.466487 120.064267a95.385785 95.385785 0 0 0 49.042987 131.241798c43.014656 17.582633 73.784264 55.259704 74.035445 101.728092l-0.062795 10.67517c-0.690746 41.444778-23.359784 82.449991-61.162446 97.709205a74.726191 74.726191 0 0 1-7.97498 2.762985 92.183234 92.183234 0 0 0-57.645919 48.352241c-12.307843 25.118047-12.559024 52.7479-3.014165 76.79843 17.708223 44.835715 13.563746 95.134605-21.09916 128.541608l-6.719078 6.467898a108.007604 108.007604 0 0 1-34.662905 22.480652 103.611946 103.611946 0 0 1-85.401362-2.951371z m75.542528-65.620899l6.719078-6.405102c19.654872-19.026921 9.544858-49.922119 6.028331-58.901821a159.374011 159.374011 0 0 1 5.02361-128.667198 156.862206 156.862206 0 0 1 99.153492-82.261606c11.742687-4.772429 20.785184-21.664316 21.09916-39.372539v-9.419268c-0.062795-26.562335-26.185564-39.435335-34.22334-42.70068a159.562397 159.562397 0 0 1-81.94763-219.21776c7.535414-15.008033 4.144478-33.909364-8.414545-46.845158l-6.405103-6.656283c-18.964126-19.717667-49.922119-9.607653-58.839026-6.091126a159.687987 159.687987 0 0 1-128.729993-5.02361c-40.126081-19.717667-69.074631-54.254983-81.508064-97.332434-3.704912-12.496229-21.287545-22.606243-40.063286-22.857423l-9.356472-0.12559a38.493408 38.493408 0 0 0-14.003312 2.70019c-12.056663 4.898019-22.606243 16.452321-28.822959 31.585945a158.306494 158.306494 0 0 1-96.076532 90.424971 158.118109 158.118109 0 0 1-123.078432-8.477342 40.000491 40.000491 0 0 0-32.653462-0.816336 43.517017 43.517017 0 0 0-14.191697 9.230882l-6.656283 6.405102c-19.717667 18.964126-9.607653 49.922119-6.028331 58.839027a159.687987 159.687987 0 0 1-5.086405 128.729993 156.548231 156.548231 0 0 1-82.010424 76.233274c-5.023609 2.072239-10.047219 3.767707-17.205863 6.091126-11.617097 4.709634-20.722389 21.538726-21.036365 39.24695v9.419267c0 26.687925 26.185564 39.560925 34.22334 42.763476A159.687987 159.687987 0 0 1 180.44624 647.017355a41.068008 41.068008 0 0 0 8.414546 46.782363l6.405102 6.656282c18.964126 19.780462 49.859324 9.670448 58.901821 6.091127 41.570369-16.452321 88.541117-14.631263 128.667198 5.023609a155.669099 155.669099 0 0 1 81.570859 97.332434c3.642117 12.559024 21.22475 22.606243 40.000491 22.920219h9.419268c4.898019 0 9.419268-0.816337 13.940516-2.637395 12.056663-4.835224 22.606243-16.326731 28.82296-31.585945 16.515116-40.063286 47.661495-71.084074 87.72478-87.285215l8.351751-3.139756a158.243699 158.243699 0 0 1 123.078433 8.477341 39.74931 39.74931 0 0 0 32.653461 0.816337c5.27479-2.135034 10.047219-5.211995 14.191697-9.168088zM482.616351 287.892071c-69.263016 0-125.590237 56.327221-125.590238 125.590237s56.327221 125.590237 125.590238 125.590238 125.590237-56.327221 125.590237-125.590238-56.327221-125.590237-125.590237-125.590237M510.936949 542.149506a156.987797 156.987797 0 1 1 0-313.975593 156.987797 156.987797 0 0 1 0 313.975593m0-62.795118c51.931563 0 94.192678-42.261115 94.192678-94.192678S562.868512 290.969032 510.936949 290.969032 416.744271 333.230147 416.744271 385.16171 459.005386 479.354388 510.936949 479.354388"  horiz-adv-x="1043" />

    
    <glyph glyph-name="add1" unicode="&#59038;" d="M512 822.857143a36.571429 36.571429 0 0 0 36.571429-36.571429v-365.714285h365.714285a36.571429 36.571429 0 1 0 0-73.142858H548.498286l0.073143-365.714285a36.571429 36.571429 0 1 0-73.142858 0l-0.073142 365.714285H109.714286a36.571429 36.571429 0 0 0 0 73.142858h365.714285v365.714285A36.571429 36.571429 0 0 0 512 822.857143z"  horiz-adv-x="1024" />

    
    <glyph glyph-name="Point1" unicode="&#59039;" d="M612.205714 723.821714l294.4-294.473143a36.571429 36.571429 0 0 0 0-51.712L612.205714 83.163429a36.571429 36.571429 0 0 0-55.954285 46.665142l4.242285 5.12 236.105143 236.032H146.285714a36.571429 36.571429 0 0 0 0 73.142858h642.194286L560.420571 672.109714a36.571429 36.571429 0 0 0-4.242285 46.665143l4.242285 5.12a36.571429 36.571429 0 0 0 51.712 0z"  horiz-adv-x="1024" />

    
    <glyph glyph-name="arrow-left" unicode="&#59036;" d="M424.106667 386.56a64 64 0 0 1-6.229334-83.285333l6.229334-7.168 298.666666-298.666667a64 64 0 0 1 96.682667 83.285333L813.226667 87.893333 559.872 341.333333l253.44 253.44a64 64 0 0 1 6.144 83.285334L813.226667 685.226667a64 64 0 0 1-83.285334 6.229333l-7.168-6.229333-298.666666-298.666667z"  horiz-adv-x="1024" />

    
    <glyph glyph-name="arrow-right" unicode="&#59037;" d="M685.226667 386.56a64 64 0 0 0 6.229333-83.285333l-6.229333-7.168-298.666667-298.666667a64 64 0 0 0-96.682667 83.285333l6.229334 7.168L549.461333 341.333333l-253.44 253.44a64 64 0 0 0-6.144 83.285334l6.229334 7.168a64 64 0 0 0 83.285333 6.229333l7.168-6.229333 298.666667-298.666667z"  horiz-adv-x="1024" />

    
    <glyph glyph-name="head" unicode="&#59035;" d="M512 896c282.752 0 512-229.248 512-512s-229.248-512-512-512S0 101.248 0 384 229.248 896 512 896z m0-528.042667c-161.493333 0-293.12-122.709333-298.496-276.053333l-0.170667-9.813333h597.333334l-0.170667 9.813333c-5.418667 153.344-136.96 276.053333-298.496 276.053333zM512 725.333333C408.917333 725.333333 325.333333 645.333333 325.333333 546.645333c0-98.688 83.584-178.688 186.666667-178.688s186.666667 80 186.666667 178.688C698.666667 645.333333 615.082667 725.333333 512 725.333333z"  horiz-adv-x="1024" />

    
    <glyph glyph-name="Screening" unicode="&#59034;" d="M579.648-63.808c-18.624 0-37.312 5.12-54.272 15.296l-135.68 84.8a99.52 99.52 0 0 0-47.552 86.528V412.928l-206.976 252.8A101.44 101.44 0 0 0 213.248 832h595.456a101.76 101.76 0 0 0 93.312-57.664c16.96-35.648 11.904-78.08-13.568-108.608l-206.976-252.8v-374.912c0-37.312-20.352-71.296-52.608-88.256a102.208 102.208 0 0 0-49.216-13.568zM213.248 764.16a33.6 33.6 0 0 1-30.592-18.688 32.384 32.384 0 0 1 5.12-35.648L403.2 446.848c5.12-6.784 8.448-13.568 8.448-22.016v-302.016a37.76 37.76 0 0 1 15.296-28.8l135.68-84.864c15.296-10.176 28.864-3.392 33.92-1.664a34.048 34.048 0 0 1 17.024 28.8v388.48c0 8.512 3.392 15.36 8.448 22.08l215.488 263.04a36.288 36.288 0 0 1 5.12 35.584c-1.728 5.12-10.24 18.688-30.592 18.688H213.248z"  horiz-adv-x="1024" />

    
    <glyph glyph-name="allot" unicode="&#59033;" d="M965.358909 67.865967a30.671631 30.671631 0 0 0 26.684319-45.823416l-2.82179-4.109999-108.577573-134.587116a30.671631 30.671631 0 0 0-50.792221 33.922824l3.067163 4.600745 68.27505 84.653701H552.089355a30.671631 30.671631 0 0 0-30.180885 25.150737L521.417724 37.194337a30.671631 30.671631 0 0 0 25.150738 30.180884L552.089355 67.865967h413.330897zM521.417724 896a214.701416 214.701416 0 0 0 91.033401-409.159555c82.015941-18.893725 156.793377-63.18356 215.744251-127.655328 20.243276-22.144917 38.339539-46.436849 54.043413-72.446392a30.671631 30.671631 0 0 0-52.509832-31.714466 396.706873 396.706873 0 0 1-46.804908 62.754156C714.158252 392.985254 620.793808 435.925537 521.417724 435.925537c-202.73948 0-368.05957-178.018145-368.05957-398.7312a30.671631 30.671631 0 1 0-61.343261 0c0 220.222309 144.586068 404.92687 338.308088 449.707451A214.701416 214.701416 0 0 0 521.417724 896z m165.994866-577.669495a30.671631 30.671631 0 0 0 7.729251-38.523569l-3.067163-4.600744-68.397737-84.653701h349.227189a30.671631 30.671631 0 0 0 30.180885-25.150738l0.490746-5.520893a30.671631 30.671631 0 0 0-25.150737-30.180885l-5.520894-0.490746H559.573233a30.671631 30.671631 0 0 0-26.684319 45.823417l2.82179 4.109998 108.577573 134.587116a30.671631 30.671631 0 0 0 43.124313 4.600745zM521.417724 834.656738a153.358154 153.358154 0 1 1 0-306.716308 153.358154 153.358154 0 0 1 0 306.716308z"  horiz-adv-x="1047" />

    
    <glyph glyph-name="Point" unicode="&#59032;" d="M512 896l448-448H64zM320 576h384v-704H320z"  horiz-adv-x="1024" />

    
    <glyph glyph-name="message1" unicode="&#59031;" d="M648.533333 76.8c0-76.8-53.12-136.533333-119.466666-136.533333-66.346667 0-119.466667 59.733333-119.466667 136.533333zM529.066667 861.866667c60.16 0 110.336-38.144 120.448-91.818667 116.522667-47.36 200.96-162.048 200.96-288.170667v-95.146666c0-2.901333 0.128-7.893333 0.384-14.378667l0.213333-5.12c0.725333-14.933333 2.048-29.824 4.053333-43.434667 2.133333-14.165333 4.821333-25.856 7.765334-33.706666 37.674667-5.717333 67.242667-36.138667 67.242666-76.288 0-44.373333-38.698667-77.269333-82.474666-77.269334H210.474667C166.698667 136.533333 128 169.472 128 213.802667c0 39.210667 30.208 69.461333 67.456 75.946666 2.944 7.936 5.589333 19.669333 7.68 33.92 1.92 13.653333 3.2 28.586667 3.925333 43.52l0.554667 16.981334v97.706666c0 123.818667 76.8 233.173333 190.250667 283.562667l10.752 4.565333C418.688 823.765333 468.906667 861.866667 529.066667 861.866667z m0-85.333334c-22.656 0-36.992-12.458667-36.992-26.538666v-42.453334l-30.293334-9.173333c-99.626667-30.208-168.789333-117.632-168.789333-216.490667v-95.146666c0-3.925333-0.128-9.984-0.426667-17.621334l-0.256-5.973333c-0.853333-17.493333-2.346667-34.986667-4.736-51.626667-5.973333-41.216-14.848-72.192-32.981333-89.642666h550.698667c-19.328 17.450667-28.501333 48.298667-34.56 89.472a539.306667 539.306667 0 0 0-4.906667 51.712l-0.64 20.352V481.877333c0 97.194667-72.661333 187.818667-168.661333 216.448l-30.464 9.088v42.581334c0 14.08-14.336 26.538667-36.992 26.538666z"  horiz-adv-x="1024" />

    
    <glyph glyph-name="exit" unicode="&#59027;" d="M400 880a48 48 0 0 0 0-96H192a80 80 0 0 1-79.616-71.808L112 704v-640c0-41.408 31.488-75.52 71.808-79.616L192-16h208a48 48 0 1 0 0-96H192a176 176 0 0 0-175.68 165.248L16 64V704A176 176 0 0 0 181.248 879.68L192 880h208z m313.92-305.92l135.808-135.808a64 64 0 0 0 0-90.496l-135.808-135.744a48 48 0 1 0-67.84 67.84l56 56.128H368a48 48 0 0 0 0 96h352.256l-74.24 74.176a48 48 0 0 0 67.904 67.84z"  horiz-adv-x="1024" />

    
    <glyph glyph-name="user" unicode="&#59028;" d="M497.074627 896a305.671642 305.671642 0 0 0 131.438806-581.693134c197.03594-49.335403 342.352239-207.06197 342.352239-396.45612a45.850746 45.850746 0 1 0-91.701493 0c0 162.739582-145.744239 299.558209-336.238806 318.693254V40.119403h-91.701492v196.424597c-190.494567-19.135045-336.238806-155.953672-336.238806-318.693254a45.850746 45.850746 0 1 0-91.701493 0c0 189.394149 145.316299 347.120716 342.352239 396.578388A305.671642 305.671642 0 0 0 497.074627 896z m0-91.701493a213.970149 213.970149 0 1 1 0-427.940298 213.970149 213.970149 0 0 1 0 427.940298z"  horiz-adv-x="1024" />

    
    <glyph glyph-name="have" unicode="&#59029;" d="M756.184615 376.123077a252.061538 252.061538 0 1 0 0-504.123077 252.061538 252.061538 0 0 0 0 504.123077zM661.661538 896a173.292308 173.292308 0 0 0 172.977231-162.705723l0.315077-10.586585v-261.702892a47.261538 47.261538 0 0 0-94.081969-6.427569l-0.441108 6.427569V722.707692a78.769231 78.769231 0 0 1-70.703261 78.391139L661.661538 801.476923h-441.107692a78.769231 78.769231 0 0 1-78.391138-70.703261L141.784615 722.707692v-630.153846c0-40.770954 31.003569-74.358154 70.703262-78.391138l8.065969-0.378093h222.759385a47.261538 47.261538 0 0 0 6.427569-94.081969l-6.427569-0.441108H220.553846a173.292308 173.292308 0 0 0-172.977231 162.705724L47.261538 92.553846v630.153846A173.292308 173.292308 0 0 0 209.967262 895.684923L220.553846 896h441.107692zM756.184615 281.6a157.538462 157.538462 0 1 1 0-315.076923 157.538462 157.538462 0 0 1 0 315.076923z m124.266339-65.346954a47.261538 47.261538 0 0 0 11.846892-60.557784l-3.906954-5.797416-107.504246-136.743384a47.261538 47.261538 0 0 0-59.612554-12.351016l-5.797415 3.717908-63.960615 47.639631a47.261538 47.261538 0 0 0 50.538338 79.58843l5.923446-3.780923 27.0336-20.101907 79.084308 100.446523a47.261538 47.261538 0 0 0 66.3552 7.939938zM393.846154 376.123077a47.261538 47.261538 0 0 0 0-94.523077h-94.523077a47.261538 47.261538 0 0 0 0 94.523077h94.523077z m189.046154 252.061538a47.261538 47.261538 0 0 0 0-94.523077h-283.569231a47.261538 47.261538 0 0 0 0 94.523077h283.569231z"  horiz-adv-x="1024" />

    
    <glyph glyph-name="wait" unicode="&#59030;" d="M756.184615 376.123077a252.061538 252.061538 0 1 0 0-504.123077 252.061538 252.061538 0 0 0 0 504.123077zM661.661538 896a173.292308 173.292308 0 0 0 172.977231-162.705723l0.315077-10.586585v-261.702892a47.261538 47.261538 0 0 0-94.081969-6.427569l-0.441108 6.427569V722.707692a78.769231 78.769231 0 0 1-70.703261 78.391139L661.661538 801.476923h-441.107692a78.769231 78.769231 0 0 1-78.391138-70.703261L141.784615 722.707692v-630.153846c0-40.770954 31.003569-74.358154 70.703262-78.391138l8.065969-0.378093h222.759385a47.261538 47.261538 0 0 0 6.427569-94.081969l-6.427569-0.441108H220.553846a173.292308 173.292308 0 0 0-172.977231 162.705724L47.261538 92.553846v630.153846A173.292308 173.292308 0 0 0 209.967262 895.684923L220.553846 896h441.107692zM756.184615 281.6a157.538462 157.538462 0 1 1 0-315.076923 157.538462 157.538462 0 0 1 0 315.076923z m0-220.553846a47.261538 47.261538 0 1 0 0-94.523077 47.261538 47.261538 0 0 0 0 94.523077z m47.261539 189.046154l-15.753846-157.538462h-66.103139L708.923077 250.092308h94.523077z m-409.6 126.030769a47.261538 47.261538 0 0 0 0-94.523077h-94.523077a47.261538 47.261538 0 0 0 0 94.523077h94.523077z m189.046154 252.061538a47.261538 47.261538 0 0 0 0-94.523077h-283.569231a47.261538 47.261538 0 0 0 0 94.523077h283.569231z"  horiz-adv-x="1024" />

    
    <glyph glyph-name="indicators" unicode="&#59024;" d="M73.142857 887.661714a54.857143 54.857143 0 0 0 54.345143-47.396571l0.512-7.460572v-822.784l822.857143-0.073142a54.857143 54.857143 0 0 0 54.345143-47.396572l0.512-7.460571a54.857143 54.857143 0 0 0-47.396572-54.345143l-7.460571-0.512H73.142857a54.857143 54.857143 0 0 0-54.345143 47.396571l-0.512 7.460572v877.714285A54.857143 54.857143 0 0 0 73.142857 887.661714z m622.08-160.914285l249.124572-1.609143a54.857143 54.857143 0 0 0 53.979428-47.104l0.585143-7.387429 1.609143-249.197714a54.857143 54.857143 0 0 0-109.202286-8.118857l-0.512 7.460571-0.804571 118.491429L638.244571 287.451429a54.857143 54.857143 0 0 0-71.972571-4.900572l-5.632 4.900572-116.297143 116.443428-167.277714-167.350857a54.857143 54.857143 0 0 0-71.972572-4.900571l-5.632 4.900571a54.857143 54.857143 0 0 0-4.900571 71.972571l4.900571 5.632 206.043429 206.043429a54.857143 54.857143 0 0 0 71.972571 4.900571l5.558858-4.900571 116.370285-116.297143 212.553143 212.48-117.467428 0.731429a54.857143 54.857143 0 0 0-54.052572 47.689143l-0.438857 7.460571a54.857143 54.857143 0 0 0 47.762286 54.052571l7.460571 0.438858z"  horiz-adv-x="1024" />

    
    <glyph glyph-name="tag" unicode="&#59026;" d="M1024 896v-1024L0 896h1024z m-99.693714-121.197714L674.304 510.390857 538.550857 654.043429l-53.101714-50.249143 188.854857-199.899429 303.104 320.731429-53.101714 50.176z"  horiz-adv-x="1024" />

    
    <glyph glyph-name="extract" unicode="&#59025;" d="M572.065373 872.122387l7.963938-6.790955 366.526334-344.918751c45.067243-42.350862 45.067243-112.359429 0-154.71029-18.397313-17.286066-42.165654-27.781177-67.292186-30.18888l-10.865527-0.493888H795.11736v-354.981711a108.037912 108.037912 0 0 0-99.147935-107.667496L687.079448-128H316.663749a108.037912 108.037912 0 0 0-107.667496 99.147935L208.625837-19.962088V335.019623H135.345264C74.164938 335.019623 23.417987 382.741513 23.417987 443.057536c0 25.990835 9.692544 50.932159 26.978611 70.378982l6.790954 6.976163L423.713886 865.331432A115.014074 115.014074 0 0 0 572.065373 872.122387zM490.882599 800.508685l-3.704157-2.654646L120.652108 452.935288A13.705381 13.705381 0 0 1 116.021912 443.057536c0-6.790954 5.926651-13.273229 14.693156-15.001836l4.630196-0.432152H241.96325l-0.061736-0.061736h59.266512V-19.962088a15.433987 15.433987 0 0 1 11.915038-15.001836L316.663749-35.396075h370.415699a15.433987 15.433987 0 0 1 15.001836 11.915038l0.432151 3.518949V427.500076h66.61309V427.623548h99.271407a21.484111 21.484111 0 0 1 14.693156 5.556236c5.124084 4.815404 5.988387 11.297679 2.59291 16.668706l-2.59291 3.086798-366.526334 344.918751a22.471886 22.471886 0 0 1-25.682155 2.654646z m33.707829-209.902229l4.753668-4.136309L616.638729 499.23725a46.301962 46.301962 0 0 0-60.748175-69.638151l-4.753668 4.136308-2.963325 3.025062V259.084405a46.301962 46.301962 0 0 0-92.171773-6.235331L455.569636 259.084405V447.379052l-13.581909-13.581909a46.301962 46.301962 0 0 0-60.748175-4.198044l-4.691932 4.136308a46.301962 46.301962 0 0 0-4.136308 60.748175l4.136308 4.753668 87.294633 87.294633a46.301962 46.301962 0 0 0 60.748175 4.136309z"  horiz-adv-x="1024" />

    
    <glyph glyph-name="icon-form" unicode="&#59023;" d="M768 731.428571c50.468571 0 91.428571-40.96 91.428571-91.428571v-658.285714c0-50.468571-40.96-91.428571-91.428571-91.428572h-658.285714c-50.468571 0-91.428571 40.96-91.428572 91.428572v658.285714c0 50.468571 40.96 91.428571 91.428572 91.428571z m-18.285714-109.714285h-621.714286v-621.714286h621.714286v621.714286zM914.285714 877.714286c47.323429 0 86.308571-35.986286 90.989715-82.066286l0.438857-9.362286v-658.285714a54.857143 54.857143 0 0 0-109.202286-7.460571l-0.512 7.460571V768H256a54.857143 54.857143 0 0 0-54.345143 47.396571L201.142857 822.857143a54.857143 54.857143 0 0 0 47.396572 54.345143L256 877.714286h658.285714zM585.142857 256a54.857143 54.857143 0 0 0 7.460572-109.202286L585.142857 146.285714H292.571429a54.857143 54.857143 0 0 0-7.460572 109.202286L292.571429 256h292.571428z m0 219.428571a54.857143 54.857143 0 0 0 7.460572-109.202285L585.142857 365.714286H292.571429a54.857143 54.857143 0 0 0-7.460572 109.202285L292.571429 475.428571h292.571428z"  horiz-adv-x="1024" />

    
    <glyph glyph-name="prompt" unicode="&#59022;" d="M0 384a512 512 0 0 1 512-512 512 512 0 0 1 512 512 512 512 0 0 1-512 512 512 512 0 0 1-512-512z m544.036571-288.036571a31.963429 31.963429 0 1 0-64 0 31.963429 31.963429 0 1 0 64 0z m0 128a31.963429 31.963429 0 1 0-64 0V672.109714a31.963429 31.963429 0 1 0 64 0v-448.073143z"  horiz-adv-x="1024" />

    
    <glyph glyph-name="move" unicode="&#59021;" d="M768 608L1024 384l-256-224V320.064H576V192H448V320H256v-160L0 384l256 224L255.936 448H448V576h128v-127.936h192V608z"  horiz-adv-x="1024" />

    
    <glyph glyph-name="push" unicode="&#59003;" d="M831.442467 862.831054a102.504801 102.504801 0 0 0 146.581227-113.09335l-131.081124-603.611034a102.504801 102.504801 0 0 0-134.270445-74.885275l-323.014507 114.113932-30.872635-185.809885 105.630336 97.465673a34.189529 34.189529 0 0 0 43.757495 2.232525l4.528837-4.146118a34.189529 34.189529 0 0 0 2.232525-43.757495l-4.146118-4.528837-178.857164-165.14308a34.189529 34.189529 0 0 0-57.407792 24.87671l0.510292 5.868352 49.306914 295.969058L89.223509 291.304596a102.504801 102.504801 0 0 0-52.368664 41.716328l-4.847769 8.483596a102.504801 102.504801 0 0 0 44.905651 137.7787z m-405.171436-617.962983l309.172851-109.202377a34.189529 34.189529 0 0 1 43.566135 20.794378l1.148156 4.146118 131.081124 603.611035a33.99817 33.99817 0 0 1-0.89301 17.860202l-484.075256-537.209356z m387.885312 532.616733L107.912934 418.494747a34.189529 34.189529 0 0 1 4.082332-62.702065l244.557192-86.303047 457.603885 507.995169z"  horiz-adv-x="1024" />

    
    <glyph glyph-name="Date1" unicode="&#59020;" d="M736 864a32 32 0 0 0 32-32v-64h64a128 128 0 0 0 128-128v-576a128 128 0 0 0-128-128H192a128 128 0 0 0-128 128V640a128 128 0 0 0 128 128h64V832a32 32 0 0 0 64 0v-64h384V832a32 32 0 0 0 32 32zM256 704H192a64 64 0 0 1-63.552-56.512L128 640v-576a64 64 0 0 1 56.512-63.552L192 0h640a64 64 0 0 1 63.552 56.512L896 64V640a64 64 0 0 1-56.512 63.552L832 704h-64v-64a32 32 0 1 0-64 0V704H320v-64a32 32 0 0 0-64 0V704z m288-448a32 32 0 1 0 0-64h-256a32 32 0 1 0 0 64h256z m192 192a32 32 0 1 0 0-64h-448a32 32 0 0 0 0 64h448z"  horiz-adv-x="1024" />

    
    <glyph glyph-name="Time1" unicode="&#59019;" d="M512 896a512 512 0 1 0 0-1024A512 512 0 0 0 512 896z m0-64a448 448 0 1 1 0-896A448 448 0 0 1 512 832z m0-160a32 32 0 0 0 31.488-26.24L544 640v-242.112l181.888-170.688a32 32 0 0 0 4.992-40.704l-3.52-4.48a32 32 0 0 0-40.704-5.056l-4.544 3.584-192 180.096a32 32 0 0 0-9.664 18.112L480 384V640a32 32 0 0 0 32 32z"  horiz-adv-x="1024" />

    
    <glyph glyph-name="icon" unicode="&#59018;" d="M882.517333 754.517333a40.021333 40.021333 0 0 0 0-56.576L568.490667 384l314.026666-314.026667c13.653333-13.653333 15.36-34.730667 5.12-50.261333l-5.12-6.229333a40.021333 40.021333 0 0 0-56.576 0L512 327.509333l-313.856-314.026666a40.021333 40.021333 0 0 0-56.576 56.576L455.424 384l-314.026667 313.856a40.021333 40.021333 0 0 0-5.12 50.346667l5.12 6.229333a40.021333 40.021333 0 0 0 56.661334 0L512 440.576l314.026667 314.026667a40.021333 40.021333 0 0 0 56.490666 0z"  horiz-adv-x="1024" />

    
    <glyph glyph-name="select1" unicode="&#59002;" d="M512-128A512 512 0 1 1 512 896a512 512 0 0 1 0-1024z m0 73.142857A438.857143 438.857143 0 1 0 512 822.857143a438.857143 438.857143 0 0 0 0-877.714286z"  horiz-adv-x="1024" />

    
    <glyph glyph-name="guide_2" unicode="&#58999;" d="M512 896a512 512 0 1 0 0-1024A512 512 0 0 0 512 896z m0-64a448 448 0 1 1 0-896A448 448 0 0 1 512 832z m213.696-300.672a64 64 0 0 0 0-40.512L604.8 128.192a64 64 0 0 0-114.56-14.336l-90.112 140.352-130.56 82.304a64 64 0 0 0 13.888 114.816l361.28 120.448a64 64 0 0 0 80.96-40.448z m-60.736-20.288L303.744 390.656l130.56-82.304a64 64 0 0 0 15.552-13.888l4.16-5.696L544 148.48l120.896 362.624z"  horiz-adv-x="1024" />

    
    <glyph glyph-name="Shape" unicode="&#58990;" d="M512 896C229.189818 896 0 666.810182 0 384s229.189818-512 512-512 512 229.189818 512 512S794.810182 896 512 896z m-6.516364-812.590545a43.287273 43.287273 0 1 0 0.046546 86.62109 43.287273 43.287273 0 0 0 0-86.62109zM691.293091 505.018182c-2.513455-46.312727-16.709818-82.850909-87.691636-153.832727-35.979636-35.979636-58.693818-62.976-60.974546-86.667637a36.026182 36.026182 0 1 0-71.726545 7.074909c4.887273 49.896727 41.518545 90.205091 81.780363 130.513455 64.512 64.512 65.629091 84.992 66.699637 106.682182a92.625455 92.625455 0 0 1-26.391273 69.12 112.360727 112.360727 0 0 1-81.175273 34.583272h-0.232727A107.659636 107.659636 0 0 1 404.293818 505.018182a35.979636 35.979636 0 1 0-72.005818 0c0 47.941818 18.618182 92.951273 52.410182 126.836363a178.269091 178.269091 0 0 0 126.696727 52.689455 184.785455 184.785455 0 0 0 133.818182-57.018182 163.374545 163.374545 0 0 0 46.08-122.461091z"  horiz-adv-x="1024" />

    
    <glyph glyph-name="library1" unicode="&#58989;" d="M587.276992 884.512045l11.025049-5.622045 332.722843-192.098705c39.500342-22.853248 63.886875-64.982078 63.886874-110.688574v-384.19741a127.773749 127.773749 0 0 0-63.886874-110.61556L598.302041-110.881968a127.773749 127.773749 0 0 0-127.773749 0l-332.722843 192.025691A127.773749 127.773749 0 0 0 73.918574 191.978324V576.175735c0 45.633482 24.386533 87.835326 63.886875 110.688573L470.528292 878.816986a127.773749 127.773749 0 0 0 116.821713 5.695059zM183.438931 525.942398v-334.037087c0-6.571221 3.504651-12.558334 9.126696-15.770932l287.016347-165.740806V361.880904L183.438931 525.942398z m701.879457-20.078732L589.102331 341.802172v-331.408599l287.162375 165.740806a18.253393 18.253393 0 0 1 9.126696 15.770932l-0.073014 313.958355z m-588.489382 146.319196l-56.43949-32.564053 312.060002-172.896136 57.680721 31.979944-313.301233 173.480245z m228.459464 131.862509l-117.77089-67.975634 315.637667-174.794489 122.88184 68.048648-302.495224 174.721475-4.380815 1.825339a18.253393 18.253393 0 0 1-13.872578-1.825339z"  horiz-adv-x="1024" />

    
    <glyph glyph-name="Regressionanalysis" unicode="&#59016;" d="M322.56 770.048a32 32 0 0 0-16.64-42.048A401.92 401.92 0 0 1 63.552 359.232c0-221.952 180.352-401.92 402.88-401.92a402.88 402.88 0 0 1 350.72 203.84l-78.4-20.928a32 32 0 0 0-37.248 17.28l-1.92 5.376a32 32 0 0 0 17.152 37.184l5.44 1.984 158.272 42.432a32 32 0 0 0 37.248-17.216l1.92-5.376 39.296-146.56a32 32 0 0 0-59.84-22.016l-1.92 5.376-20.736 77.44a466.88 466.88 0 0 0-409.984-242.816c-257.856 0-466.88 208.64-466.88 465.92a465.92 465.92 0 0 0 280.96 427.456 32 32 0 0 0 42.048-16.64zM478.208 854.656c258.944 0 471.04-205.44 479.744-464l0.768-48H510.208a64 64 0 0 0-64 64v448z m31.936-65.216v-382.72h382.784l-1.024 11.776a416.128 416.128 0 0 1-369.408 369.856l-12.352 1.088z"  horiz-adv-x="1044" />

    
    <glyph glyph-name="Toperform_2" unicode="&#59017;" d="M934.4 310.08l4.928-0.896c14.912-4.096 23.68-19.52 19.712-34.56-54.912-202.752-237.504-343.36-446.016-343.552-162.368 0-310.4 86.912-393.088 221.696v-129.472c0-15.616-12.48-28.16-27.968-28.16a28.096 28.096 0 0 0-27.968 28.16v253.44c0 15.616 12.544 28.16 27.968 28.16 1.28 0 2.432-0.512 3.584-0.64a27.456 27.456 0 0 0 27.008-20.16c49.408-174.656 209.92-296.64 390.464-296.576 183.232 0.128 343.68 123.712 392 301.824a27.968 27.968 0 0 0 34.304 19.84zM416.64 612.16c10.24 10.752 26.88 10.88 37.312 0.32l188.032-196.288a28.352 28.352 0 0 0 0-39.296c-0.64-0.64-1.408-0.832-2.048-1.408-0.512-0.64-0.768-1.472-1.28-2.176L453.952 180.48a25.792 25.792 0 0 0-37.632 0 28.672 28.672 0 0 0 0 39.296L585.6 396.48 416.384 573.248a28.672 28.672 0 0 0 0.32 38.912zM511.232 885.44a462.72 462.72 0 0 0 392.192-217.28V803.392c0 15.808 12.672 28.608 28.288 28.608s28.288-12.8 28.288-28.608v-257.856a28.352 28.352 0 0 0-28.288-28.608c-1.152 0-2.112 0.512-3.2 0.64-1.536 0.064-2.944 0.512-4.416 0.896-1.408 0.384-2.88 0.64-4.288 1.28a28.16 28.16 0 0 0-16.64 17.728c-53.248 173.44-212.288 291.52-391.936 290.816-179.84 0.768-338.944-117.504-392-291.2a28.544 28.544 0 0 0-35.328-19.008 28.928 28.928 0 0 0-18.56 35.84C125.504 751.68 306.56 886.272 511.168 885.44z"  horiz-adv-x="1024" />

    
    <glyph glyph-name="fold" unicode="&#59004;" d="M845.354667 144a39.978667 39.978667 0 1 0 0-80H178.688a39.978667 39.978667 0 1 0 0 80zM197.546667 489.088l182.357333-12.288a6.656 6.656 0 0 0 4.266667-11.349333L207.274667 288.426667a6.656 6.656 0 0 0-11.392 4.266666l-12.501334 182.101334a13.312 13.312 0 0 0 14.208 14.250666z m647.722666-65.066667a39.978667 39.978667 0 1 0 0-80.042666h-400a39.978667 39.978667 0 1 0 0 80.042666z m0 279.978667a39.978667 39.978667 0 1 0 0-80H178.688a40.021333 40.021333 0 0 0 0 80z"  horiz-adv-x="1024" />

    
    <glyph glyph-name="analyze1" unicode="&#59005;" d="M307.931429 837.997714A54.857143 54.857143 0 0 0 351.817143 737.28a371.858286 371.858286 0 1 1 487.570286-492.982857 54.857143 54.857143 0 0 0 100.205714-44.836572A481.499429 481.499429 0 1 0 307.931429 837.997714zM499.858286 877.714286a481.499429 481.499429 0 0 0 481.572571-481.499429v-54.857143H536.356571c-50.468571 0-91.428571 40.96-91.428571 91.428572V877.714286h54.857143z m54.857143-113.737143v-312.905143h312.978285a372.077714 372.077714 0 0 1-312.978285 312.905143z"  horiz-adv-x="1024" />

    
    <glyph glyph-name="field" unicode="&#59006;" d="M787.692308 313.107692a47.261538 47.261538 0 0 0 47.261538-47.261538v-126.030769h126.030769a47.261538 47.261538 0 1 0 0-94.523077h-126.093784l0.063015-126.03077a47.261538 47.261538 0 1 0-94.523077 0l-0.063015 126.03077H614.4a47.261538 47.261538 0 1 0 0 94.523077h126.030769v126.030769a47.261538 47.261538 0 0 0 47.261539 47.261538z m31.507692 567.138462A173.292308 173.292308 0 0 0 992.492308 706.953846v-378.092308a47.261538 47.261538 0 1 0-94.523077 0V706.953846c0 43.480615-35.288615 78.769231-78.769231 78.769231H189.046154c-43.480615 0-78.769231-35.288615-78.769231-78.769231v-630.153846c0-43.480615 35.288615-78.769231 78.769231-78.769231h315.076923a47.261538 47.261538 0 1 0 0-94.523077H189.046154A173.292308 173.292308 0 0 0 15.753846 76.8V706.953846A173.292308 173.292308 0 0 0 189.046154 880.246154zM643.765169 675.446154v-130.567877h-15.123692l-58.226215 52.176738c-9.074215 7.561846-22.685538 11.342769-37.809231 11.34277h-47.639631v-348.601108c0-25.710277 3.024738-46.127262 9.074215-60.494769 7.561846-15.123692 17.392246-27.978831 29.4912-34.784493v-15.123692H373.051077v15.123692c11.342769 6.805662 21.929354 19.6608 29.4912 34.784493 5.293292 14.367508 8.318031 34.784492 8.318031 60.494769V608.397785h-46.883446c-15.879877 0-28.735015-3.780923-38.565416-11.34277l-58.226215-52.176738H252.061538V675.446154h391.703631z"  horiz-adv-x="1024" />

    
    <glyph glyph-name="icon-down" unicode="&#59007;" d="M512 170.666667l-341.333333 426.666666h682.666666z"  horiz-adv-x="1024" />

    
    <glyph glyph-name="icon-up" unicode="&#59008;" d="M725.333333 384l-426.666666-341.333333V725.333333z"  horiz-adv-x="1024" />

    
    <glyph glyph-name="home" unicode="&#59009;" d="M631.734857 790.235429l237.714286-176.054858A201.142857 201.142857 0 0 0 950.857143 452.534857v-348.891428a201.142857 201.142857 0 0 0-201.142857-201.142858h-475.428572A201.142857 201.142857 0 0 0 73.142857 103.643429v348.891428c0 59.245714 26.038857 115.126857 70.802286 153.161143l10.605714 8.484571 237.714286 176.054858a201.142857 201.142857 0 0 0 239.469714 0zM457.581714 702.171429L219.867429 525.897143l-8.265143-6.875429a91.428571 91.428571 0 0 1-28.745143-66.56v-348.891428c0-50.468571 40.96-91.428571 91.428571-91.428572h475.428572c50.468571 0 91.428571 40.96 91.428571 91.428572v348.891428a91.428571 91.428571 0 0 1-37.010286 73.435429L566.418286 702.171429a91.428571 91.428571 0 0 1-108.836572 0z m182.418286-284.525715a54.857143 54.857143 0 1 0 0-109.714285h-256a54.857143 54.857143 0 0 0 0 109.714285z"  horiz-adv-x="1024" />

    
    <glyph glyph-name="library" unicode="&#59010;" d="M883.785143 67.072a54.857143 54.857143 0 0 0 0-109.714286H585.142857a54.857143 54.857143 0 1 0 0 109.714286zM179.785143 408.356571c69.924571 0 129.462857-44.397714 151.990857-106.569142l594.651429-0.073143a54.857143 54.857143 0 0 0 0-109.714286h-594.651429a161.645714 161.645714 0 1 0-151.990857 216.356571z m0-109.714285a51.785143 51.785143 0 1 1 0-103.570286 51.785143 51.785143 0 0 1 0 103.570286z m704 237.714285a54.857143 54.857143 0 1 0 0-109.714285H585.142857a54.857143 54.857143 0 0 0 0 109.714285zM179.785143 877.714286c69.997714 0 129.536-44.470857 151.990857-106.642286h594.651429a54.857143 54.857143 0 0 0 0-109.714286h-594.651429A161.645714 161.645714 0 1 0 179.785143 877.714286z m0-109.714286a51.785143 51.785143 0 1 1 0-103.643429 51.785143 51.785143 0 0 1 0 103.643429z"  horiz-adv-x="1024" />

    
    <glyph glyph-name="map" unicode="&#59011;" d="M831.328403 895.929786a134.60011 134.60011 0 1 0-58.137137-256L685.07278 551.8113c22.187603-33.91333 35.106967-74.496983 35.106967-118.099835a215.556775 215.556775 0 0 0-26.400439-103.635766l64.456391-64.386176A175.534833 175.534833 0 1 0 679.876949 194.913878l-57.715853 57.645639A215.486561 215.486561 0 0 0 503.639977 217.241909c-43.532639 0-84.186506 12.84915-118.170049 35.036753l-57.786067-57.856281a175.534833 175.534833 0 1 0-77.937466 70.916072l64.035107 64.245749A215.556775 215.556775 0 0 0 287.100208 433.711465c0 43.813494 13.059792 84.537575 35.387822 118.661547l-46.902907 46.902907a134.60011 134.60011 0 1 0 69.441579 79.6226l55.047724-55.047724A215.556775 215.556775 0 0 0 503.639977 650.18102a215.556775 215.556775 0 0 0 104.197477-26.681294l95.631377 95.701591a134.60011 134.60011 0 0 0 127.789358 176.798683zM175.951552 176.236972a70.213933 70.213933 0 1 1 0-140.427866 70.213933 70.213933 0 0 1 0 140.427866z m655.376851 0a70.213933 70.213933 0 1 1 0-140.427866 70.213933 70.213933 0 0 1 0 140.427866zM503.639977 544.860121c-22.889742 0-44.164564-6.880965-61.788261-18.74712a42.47943 42.47943 0 0 0-8.004388-10.672518 52.520022 52.520022 0 0 0-15.657707-10.812946A111.148656 111.148656 0 1 1 503.639977 544.860121zM216.956489 749.674163a29.27921 29.27921 0 1 1 0-58.488206 29.27921 29.27921 0 0 1 0 58.488206z m614.371914 40.934723a29.27921 29.27921 0 1 1 0-58.488206 29.27921 29.27921 0 0 1 0 58.488206z"  horiz-adv-x="1048" />

    
    <glyph glyph-name="scanning" unicode="&#59012;" d="M499.785143 877.714286a481.499429 481.499429 0 1 0-337.334857-137.947429 54.857143 54.857143 0 0 0 88.649143-17.115428l287.451428-287.670858a54.857143 54.857143 0 1 0-77.531428-77.531428L200.996571 617.398857a371.785143 371.785143 0 1 1 243.638858 146.432 54.857143 54.857143 0 1 0-16.091429 108.544A484.937143 484.937143 0 0 0 499.712 877.714286z"  horiz-adv-x="1024" />

    
    <glyph glyph-name="management" unicode="&#59013;" d="M762.806857 373.028571l150.381714-86.893714a128 128 0 0 0 46.811429-174.811428l-86.820571-150.454858a128 128 0 0 0-174.811429-46.811428L547.84 0.804571a128 128 0 0 0-46.811429 174.811429L587.849143 326.217143a128 128 0 0 0 174.811428 46.811428z m-442.806857-7.314285c70.656 0 128-57.344 128-128v-173.714286a128 128 0 0 0-128-128H146.285714a128 128 0 0 0-128 128V237.714286c0 70.656 57.344 128 128 128h173.714286z m362.934857-94.427429L596.114286 120.832a18.285714 18.285714 0 0 1 6.656-24.941714l150.454857-86.893715a18.285714 18.285714 0 0 1 24.941714 6.729143l86.893714 150.381715a18.285714 18.285714 0 0 1-6.729142 25.014857L708.022857 277.942857a18.285714 18.285714 0 0 1-25.014857-6.656z m-362.934857-15.286857H146.285714a18.285714 18.285714 0 0 1-18.285714-18.285714v-173.714286c0-10.093714 8.192-18.285714 18.285714-18.285714h173.714286a18.285714 18.285714 0 0 1 18.285714 18.285714V237.714286a18.285714 18.285714 0 0 1-18.285714 18.285714z m475.428571 621.714286c70.656 0 128-57.344 128-128v-173.714286a128 128 0 0 0-128-128H621.714286a128 128 0 0 0-128 128V749.714286c0 70.656 57.344 128 128 128h173.714285z m-475.428571 0c70.656 0 128-57.344 128-128v-173.714286a128 128 0 0 0-128-128H146.285714a128 128 0 0 0-128 128V749.714286C18.285714 820.370286 75.629714 877.714286 146.285714 877.714286h173.714286z m475.428571-109.714286H621.714286a18.285714 18.285714 0 0 1-18.285715-18.285714v-173.714286c0-10.093714 8.192-18.285714 18.285715-18.285714h173.714285a18.285714 18.285714 0 0 1 18.285715 18.285714V749.714286a18.285714 18.285714 0 0 1-18.285715 18.285714z m-475.428571 0H146.285714l-4.169143-0.512A18.285714 18.285714 0 0 1 128 749.714286v-173.714286c0-10.093714 8.192-18.285714 18.285714-18.285714h173.714286a18.285714 18.285714 0 0 1 18.285714 18.285714V749.714286a18.285714 18.285714 0 0 1-18.285714 18.285714z"  horiz-adv-x="1024" />

    
    <glyph glyph-name="message" unicode="&#59014;" d="M648.533333 76.8c0-76.8-53.12-136.533333-119.466666-136.533333-66.346667 0-119.466667 59.733333-119.466667 136.533333zM529.066667 861.866667c60.16 0 110.336-38.144 120.448-91.818667 116.522667-47.36 200.96-162.048 200.96-288.170667v-95.146666c0-2.901333 0.128-7.893333 0.384-14.378667l0.213333-5.12c0.725333-14.933333 2.048-29.824 4.053333-43.434667 2.133333-14.165333 4.821333-25.856 7.765334-33.706666 37.674667-5.717333 67.242667-36.138667 67.242666-76.288 0-44.373333-38.698667-77.269333-82.474666-77.269334H210.474667C166.698667 136.533333 128 169.472 128 213.802667c0 39.210667 30.208 69.461333 67.456 75.946666 2.944 7.936 5.589333 19.669333 7.68 33.92 1.92 13.653333 3.2 28.586667 3.925333 43.52l0.554667 16.981334v97.706666c0 123.818667 76.8 233.173333 190.250667 283.562667l10.752 4.565333C418.688 823.765333 468.906667 861.866667 529.066667 861.866667z m0-85.333334c-22.656 0-36.992-12.458667-36.992-26.538666v-42.453334l-30.293334-9.173333c-99.626667-30.208-168.789333-117.632-168.789333-216.490667v-95.146666c0-3.925333-0.128-9.984-0.426667-17.621334l-0.256-5.973333c-0.853333-17.493333-2.346667-34.986667-4.736-51.626667-5.973333-41.216-14.848-72.192-32.981333-89.642666h550.698667c-19.328 17.450667-28.501333 48.298667-34.56 89.472a539.306667 539.306667 0 0 0-4.906667 51.712l-0.64 20.352V481.877333c0 97.194667-72.661333 187.818667-168.661333 216.448l-30.464 9.088v42.581334c0 14.08-14.336 26.538667-36.992 26.538666z"  horiz-adv-x="1024" />

    
    <glyph glyph-name="move1" unicode="&#59015;" d="M824.874667 896A199.125333 199.125333 0 0 0 1024 696.874667V384a42.666667 42.666667 0 0 0-85.333333 0V696.874667A113.792 113.792 0 0 1 824.874667 810.666667H199.125333A113.792 113.792 0 0 1 85.333333 696.874667v-625.749334A113.792 113.792 0 0 1 199.125333-42.666667h352a42.666667 42.666667 0 0 0 0-85.333333h-352A199.125333 199.125333 0 0 0 0 71.125333V696.874667A199.125333 199.125333 0 0 0 199.125333 896z m-238.421334-558.293333l306.944-43.861334a21.333333 21.333333 0 0 0 8.448-39.125333l-122.581333-77.952 171.221333-171.221333a39.637333 39.637333 0 1 0-56.021333-56.021334L723.2 120.746667l-77.994667-122.581334a21.333333 21.333333 0 0 0-39.082666 8.448l-43.861334 306.944a21.333333 21.333333 0 0 0 24.149334 24.149334z"  horiz-adv-x="1024" />

    
    <glyph glyph-name="2" unicode="&#58967;" d="M512 896a512 512 0 1 0 0-1024A512 512 0 0 0 512 896z m0-96a416 416 0 1 1 0-832 416 416 0 0 1 0 832z m320-368v-96H192v96h640z"  horiz-adv-x="1024" />

    
    <glyph glyph-name="add" unicode="&#58968;" d="M512 896a512 512 0 1 0 0-1024A512 512 0 0 0 512 896z m0-96a416 416 0 1 1 0-832 416 416 0 0 1 0 832zM560 704v-272H832v-96H560V64h-96V336H192v96h272V704h96z"  horiz-adv-x="1024" />

    
    <glyph glyph-name="back" unicode="&#58969;" d="M408 704l67.84-67.84-204.16-204.16H960v-96H300.864l175.04-175.04-67.904-67.84-305.472 305.408L408 704z"  horiz-adv-x="1024" />

    
    <glyph glyph-name="back2" unicode="&#58970;" d="M672 672c176 0 320-128 320-288 0-155.52-136.192-280.832-305.408-287.68l-14.592-0.32h-576a32 32 0 0 0-5.76 63.488l5.76 0.512h576c142.144 0 256 101.184 256 224 0 118.848-106.624 217.472-242.304 223.68L672 608H320a32 32 0 0 0-5.76 63.488L320 672h352zM432 859.648l45.248-45.248L318.848 656l158.4-158.4-45.248-45.248L228.352 656z"  horiz-adv-x="1024" />

    
    <glyph glyph-name="analyze" unicode="&#58971;" d="M280.896 786.688a32 32 0 1 0 25.472-58.688A401.92 401.92 0 0 1 64 359.232c0-221.952 180.352-401.92 402.88-401.92a403.008 403.008 0 0 1 367.936 237.824 32 32 0 0 0 58.368-26.24 467.008 467.008 0 0 0-426.304-275.584c-257.856 0-466.88 208.64-466.88 465.92a465.92 465.92 0 0 0 280.96 427.456zM479.936 853.312a544 544 0 0 0 544-544v-32h-512a64 64 0 0 0-64 64v512h32z m32-65.024v-446.976h446.976a480.128 480.128 0 0 1-431.04 445.632l-15.872 1.28z"  horiz-adv-x="1045" />

    
    <glyph glyph-name="big" unicode="&#58972;" d="M512 896c282.752 0 512-229.248 512-512s-229.248-512-512-512S0 101.248 0 384 229.248 896 512 896z m42.666667-213.333333h-85.333334v-256H213.333333v-85.333334h256v-256h85.333334v256h256v85.333334h-256V682.666667z"  horiz-adv-x="1024" />

    
    <glyph glyph-name="clean" unicode="&#58974;" d="M744.740571 202.971429l-51.712-51.712L512 332.288l-181.028571-181.028571-51.785143 51.712L460.288 384 279.186286 564.955429l51.785143 51.785142L512 435.712l181.028571 181.028571 51.712-51.785142L563.712 384l181.028571-181.028571zM512 822.857143a438.857143 438.857143 0 1 1 0-877.714286A438.857143 438.857143 0 0 1 512 822.857143z"  horiz-adv-x="1024" />

    
    <glyph glyph-name="collecting" unicode="&#58975;" d="M512 103.936l-199.616-88.96a64 64 0 0 0-89.664 65.152l22.912 217.344-146.304 162.304a64 64 0 0 0 34.304 105.472l213.76 45.312 109.184 189.312a64 64 0 0 0 110.848 0l109.184-189.312 213.76-45.312a64 64 0 0 0 34.304-105.472l-146.304-162.304 22.912-217.344a64 64 0 0 0-89.664-65.152L512 103.936z"  horiz-adv-x="1024" />

    
    <glyph glyph-name="collect" unicode="&#58976;" d="M428.8 815.872L326.784 638.976l-199.744-42.432a96 96 0 0 1-44.352-22.592l-6.976-6.912a96 96 0 0 1-0.064-128.64l136.704-151.744-21.44-203.136a96 96 0 0 1 7.808-49.216l4.16-8.256a96 96 0 0 1 122.624-40.32l186.496 83.2 186.624-83.2c15.424-6.848 32.384-9.6 49.152-7.808l9.152 1.408a96 96 0 0 1 76.288 104.192l-21.504 203.136 136.768 151.68a96 96 0 0 1 22.592 44.352l1.536 9.152a96 96 0 0 1-75.52 104.704l-199.808 42.432-102.08 176.896a96 96 0 0 1-166.272 0z m99.2-20.224a32 32 0 0 0 11.712-11.776l116.288-201.6 227.776-48.32a32 32 0 0 0 17.088-52.736l-155.84-172.928 24.448-231.488a32 32 0 0 0-44.8-32.64L512 138.944l-212.608-94.72a32 32 0 0 0-44.864 32.576l24.448 231.488-155.84 172.928a32 32 0 0 0 17.088 52.736l227.776 48.256 116.288 201.664a32 32 0 0 0 43.712 11.776z"  horiz-adv-x="1024" />

    
    <glyph glyph-name="copy" unicode="&#58977;" d="M768 864a96 96 0 0 0 95.552-86.784L864 768v-64h32a64 64 0 0 0 64-64v-704a64 64 0 0 0-64-64H384a64 64 0 0 0-64 64v32h-48c-57.28 0-106.56 36.992-111.552 87.488L160 64V768c0 51.904 46.208 91.648 102.528 95.68L272 864H768zM896 640H384v-704h512V640z m-128 160H272c-25.344 0-44.288-13.312-47.488-27.648L224 768v-704c0-14.464 16.64-29.056 40.576-31.616l7.424-0.384H320V640a64 64 0 0 0 64 64h416V768a32 32 0 0 1-26.24 31.488L768 800z m32-672a32 32 0 1 0 0-64h-320a32 32 0 1 0 0 64h320z m0 192a32 32 0 1 0 0-64h-320a32 32 0 0 0 0 64h320z m-192 192a32 32 0 0 0 0-64h-128a32 32 0 0 0 0 64h128z"  horiz-adv-x="1024" />

    
    <glyph glyph-name="disable" unicode="&#58978;" d="M512 832a448 448 0 1 0 0-896A448 448 0 0 0 512 832z m0-64a384 384 0 1 1 0-768A384 384 0 0 1 512 768zM806.144 723.392l45.248-45.248-633.6-633.6-45.184 45.312z"  horiz-adv-x="1024" />

    
    <glyph glyph-name="down" unicode="&#58979;" d="M867.474286 593.481143c14.043429-12.653714 15.140571-34.377143 2.486857-48.420572L543.158857 181.906286a34.230857 34.230857 0 0 0-29.403428-18.358857H512l-1.828571 0.073142a33.645714 33.645714 0 0 0-29.403429 18.285715L153.965714 545.060571a34.304 34.304 0 1 0 50.980572 45.860572l306.980571-340.992 307.053714 340.992a34.304 34.304 0 0 0 48.420572 2.56z"  horiz-adv-x="1024" />

    
    <glyph glyph-name="file" unicode="&#58980;" d="M640 832l256-256v-512a128 128 0 0 0-128-128H256a128 128 0 0 0-128 128V704a128 128 0 0 0 128 128h384zM544 768H256a64 64 0 0 1-63.552-56.512L192 704v-640a64 64 0 0 1 56.512-63.552L256 0h512a64 64 0 0 1 63.552 56.512L832 64V544H544V768z m160-608v-64H320v64h384z m0 192v-64H320v64h384z m-192 192v-64H320v64h192z m261.44 64L613.44 768H608v-160h165.44z"  horiz-adv-x="1024" />

    
    <glyph glyph-name="delete" unicode="&#58981;" d="M640 864a96 96 0 0 0 95.552-86.784L736 768v-64h192a32 32 0 1 0 0-64h-64v-640a128 128 0 0 0-118.4-127.68L736-128h-448a128 128 0 0 0-127.68 118.4L160 0V640h-64a32 32 0 0 0 0 64h192V768A96 96 0 0 0 374.784 863.552L384 864h256zM800 640h-576v-640a64 64 0 0 1 56.512-63.552L288-64h448a64 64 0 0 1 63.552 56.512L800 0V640z m-384-192a32 32 0 0 0 32-32v-256a32 32 0 1 0-64 0v256a32 32 0 0 0 32 32z m192 0a32 32 0 0 0 32-32v-256a32 32 0 1 0-64 0v256a32 32 0 0 0 32 32z m32 352H384a32 32 0 0 1-31.488-26.24L352 768v-64h320V768a32 32 0 0 1-26.24 31.488L640 800z"  horiz-adv-x="1024" />

    
    <glyph glyph-name="edit" unicode="&#58983;" d="M576 736v-64H256A96 96 0 0 1 160 576v-512A96 96 0 0 1 256-32h512a96 96 0 0 1 96 96V384h64v-320a160 160 0 0 0-160-160H256A160 160 0 0 0 96 64V576A160 160 0 0 0 256 736h320z m432.768 65.728a96 96 0 0 0 0-135.744l-428.8-428.8-180.736-44.992 44.928 180.672 428.864 428.864a96 96 0 0 0 135.744 0z m-90.496-45.248L502.016 340.224l-15.04-60.288 60.288 15.04 416.256 416.256a32 32 0 0 1-45.248 45.248z"  horiz-adv-x="1036" />

    
    <glyph glyph-name="download" unicode="&#58984;" d="M896 352a32 32 0 0 0 32-32v-320a32 32 0 0 0-32-32H128a32 32 0 0 0-32 32V320a32 32 0 0 0 64 0v-288h704V320a32 32 0 0 0 32 32z m-384 512a32 32 0 0 0 32-32v-551.744l126.4 126.4a32 32 0 0 0 40.832 3.648l4.416-3.648a32 32 0 0 0 0-45.312l-180.992-180.992a32 32 0 0 0-45.312 0L308.352 361.344a32 32 0 0 0 45.248 45.312L480 280.256V832a32 32 0 0 0 26.24 31.488z"  horiz-adv-x="1024" />

    
    <glyph glyph-name="fill" unicode="&#58985;" d="M327.061198 750.095515a31.030303 31.030303 0 0 0-16.570182-40.649697A403.083636 403.083636 0 0 1 63.427743 337.454545a403.393939 403.393939 0 0 1 766.076121-176.872727 31.030303 31.030303 0 0 0 55.730424-27.306666A465.020121 465.020121 0 0 0 466.821682-128 465.454545 465.454545 0 0 0 286.411501 766.665697a31.030303 31.030303 0 0 0 40.649697-16.570182zM466.821682 896a558.545455 558.545455 0 0 0 558.297213-542.099394L1025.367137 337.454545H528.882288a62.060606 62.060606 0 0 0-62.060606 62.060607V896z"  horiz-adv-x="1056" />

    
    <glyph glyph-name="in" unicode="&#58986;" d="M720 880l10.752-0.32A176 176 0 0 0 896 704v-640l-0.32-10.752a176 176 0 0 0-175.68-165.248h-256v96h256l8.192 0.384A80 80 0 0 1 800 64V704l-0.384 8.192A80 80 0 0 1 720 784h-256V880h256zM424 608l214.976-214.976-214.976-214.976-67.84 67.904L446.08 336H64v96h400.256l-108.16 108.16L424 608z"  horiz-adv-x="1024" />

    
    <glyph glyph-name="look" unicode="&#58987;" d="M528.20864 736c187.392 0 357.12-98.688 508.032-293.12a96 96 0 0 0 0-117.76C885.32864 130.688 715.60064 32 528.20864 32S171.08864 130.688 20.17664 325.12a96 96 0 0 0 0 117.76C171.08864 637.312 340.81664 736 528.20864 736z m0-64C362.44864 672 210.38464 583.552 70.73664 403.648a32 32 0 0 1 0-39.296C210.38464 184.512 362.44864 96 528.20864 96s317.824 88.448 457.472 268.352a32 32 0 0 1 0 39.296C846.03264 583.488 693.96864 672 528.20864 672z m0-128a160 160 0 1 0 0-320 160 160 0 0 0 0 320z m0-64a96 96 0 1 1 0-192 96 96 0 0 1 0 192z"  horiz-adv-x="1056" />

    
    <glyph glyph-name="more" unicode="&#58988;" d="M512 896a512 512 0 1 0 0-1024A512 512 0 0 0 512 896z m0-64a448 448 0 1 1 0-896A448 448 0 0 1 512 832zM256 448a64 64 0 1 0 0-128 64 64 0 0 0 0 128z m256 0a64 64 0 1 0 0-128 64 64 0 0 0 0 128z m256 0a64 64 0 1 0 0-128 64 64 0 0 0 0 128z"  horiz-adv-x="1024" />

    
    <glyph glyph-name="perform" unicode="&#58991;" d="M512 896a512 512 0 1 0 0-1024A512 512 0 0 0 512 896z m0-64a448 448 0 1 1 0-896A448 448 0 0 1 512 832zM427.904 598.656a64 64 0 0 0 36.672-11.584l232.256-162.56a64 64 0 0 0 0-104.832l-232.256-162.56a64 64 0 0 0-100.672 52.48V534.592a64 64 0 0 0 64 64z m0-64v-325.12l232.192 162.56-232.192 162.56z"  horiz-adv-x="1024" />

    
    <glyph glyph-name="pitchup" unicode="&#58992;" d="M877.714286 896a146.285714 146.285714 0 0 0 146.285714-146.285714v-731.428572a146.285714 146.285714 0 0 0-146.285714-146.285714H146.285714a146.285714 146.285714 0 0 0-146.285714 146.285714V749.714286a146.285714 146.285714 0 0 0 146.285714 146.285714h731.428572z m-38.765715-253.805714L438.857143 242.176l-180.662857 180.662857L180.662857 345.234286 438.857143 87.04l477.622857 477.622857-77.531429 77.531429z"  horiz-adv-x="1024" />

    
    <glyph glyph-name="pitch" unicode="&#58993;" d="M512-128A512 512 0 1 1 512 896a512 512 0 0 1 0-1024z m0 365.714286a146.285714 146.285714 0 1 0 0 292.571428 146.285714 146.285714 0 0 0 0-292.571428z"  horiz-adv-x="1024" />

    
    <glyph glyph-name="save" unicode="&#58994;" d="M704 896l256-256v-640a128 128 0 0 0-128-128H192a128 128 0 0 0-128 128V768a128 128 0 0 0 128 128h512z m-39.744-96H336v-176h400v-96H240V800H192a32 32 0 0 1-31.488-26.24L160 768v-768a32 32 0 0 1 26.24-31.488L192-32h48V304h544v-336H832a32 32 0 0 1 31.488 26.24L864 0V600.256L664.256 800z m23.744-592h-352v-240h352v240z"  horiz-adv-x="1024" />

    
    <glyph glyph-name="search" unicode="&#58995;" d="M448.1792 896a448 448 0 0 0 338.304-741.76l4.352-3.584 192-192a32 32 0 0 0-45.312-45.312l-192 192a32.192 32.192 0 0 0-3.648 4.416A448 448 0 1 0 448.1792 896z m0-64a384 384 0 1 1 0-768A384 384 0 0 1 448.1792 832z"  horiz-adv-x="1024" />

    
    <glyph glyph-name="out" unicode="&#58996;" d="M448 880v-96H192a80 80 0 0 1-79.616-71.808L112 704v-640c0-41.408 31.488-75.52 71.808-79.616L192-16h256v-96H192a176 176 0 0 0-175.68 165.248L16 64V704A176 176 0 0 0 181.248 879.68L192 880h256z m232-272l214.976-214.976-214.976-214.976-67.84 67.904L702.08 336H320v96h400.256l-108.16 108.16 67.904 67.84z"  horiz-adv-x="1024" />

    
    <glyph glyph-name="select" unicode="&#58997;" d="M877.714286 896a146.285714 146.285714 0 0 0 146.285714-146.285714v-731.428572a146.285714 146.285714 0 0 0-146.285714-146.285714H146.285714a146.285714 146.285714 0 0 0-146.285714 146.285714V749.714286a146.285714 146.285714 0 0 0 146.285714 146.285714h731.428572z m0-73.142857H146.285714a73.142857 73.142857 0 0 1-72.630857-64.585143L73.142857 749.714286v-731.428572a73.142857 73.142857 0 0 1 64.585143-72.630857L146.285714-54.857143h731.428572a73.142857 73.142857 0 0 1 72.630857 64.585143L950.857143 18.285714V749.714286a73.142857 73.142857 0 0 1-64.585143 72.630857L877.714286 822.857143z"  horiz-adv-x="1024" />

    
    <glyph glyph-name="up" unicode="&#58998;" d="M301.348571 738.377143a34.304 34.304 0 0 0 48.420572 2.56l363.154286-326.802286A34.230857 34.230857 0 0 0 731.428571 384.731429v-1.755429c0-0.658286 0-1.243429-0.146285-1.901714a33.645714 33.645714 0 0 0-18.285715-29.330286L349.769143 24.868571a34.304 34.304 0 1 0-45.860572 50.907429l340.992 307.053714-340.992 307.053715a34.304 34.304 0 0 0-2.56 48.420571z"  horiz-adv-x="1024" />

    
    <glyph glyph-name="upload" unicode="&#59000;" d="M896 352a32 32 0 0 0 32-32v-320a32 32 0 0 0-32-32H128a32 32 0 0 0-32 32V320a32 32 0 0 0 64 0v-288h704V320a32 32 0 0 0 32 32zM534.656 843.648l180.992-180.992a32 32 0 1 0-45.248-45.312L544 743.744V192a32 32 0 1 0-64 0V743.744L353.6 617.344a32 32 0 0 0-45.248 45.312L489.344 843.648a32 32 0 0 0 45.312 0z"  horiz-adv-x="1024" />

    
    <glyph glyph-name="win" unicode="&#59001;" d="M512 896a512 512 0 1 0 0-1024A512 512 0 0 0 512 896z m0-85.333333a426.666667 426.666667 0 1 1 0-853.333334A426.666667 426.666667 0 0 1 512 810.666667z m286.208-225.792a42.666667 42.666667 0 0 0 4.864-54.442667l-4.864-5.973333-341.333333-341.333334a42.666667 42.666667 0 0 0-54.442667-4.864l-5.973333 4.864-170.666667 170.666667a42.666667 42.666667 0 0 0 54.442667 65.28l5.973333-4.864L426.666667 273.664l311.125333 311.210667a42.666667 42.666667 0 0 0 60.416 0z"  horiz-adv-x="1024" />

    


  </font>
</defs>
</svg>
